<?xml version="1.0" encoding="UTF-8" standalone="no"?>
<!DOCTYPE svg PUBLIC "-//W3C//DTD SVG 1.1//EN"
 "http://www.w3.org/Graphics/SVG/1.1/DTD/svg11.dtd">
<!-- Generated by graphviz version 2.47.0 (20210316.0004)
 -->
<!-- Title: dependencies Pages: 1 -->
<svg width="8484pt" height="284pt"
 viewBox="0.00 0.00 8484.00 284.00" xmlns="http://www.w3.org/2000/svg" xmlns:xlink="http://www.w3.org/1999/xlink">
<g id="graph0" class="graph" transform="scale(1 1) rotate(0) translate(4 280)">
<title>dependencies</title>
<polygon fill="white" stroke="transparent" points="-4,4 -4,-280 8480,-280 8480,4 -4,4"/>
<text text-anchor="start" x="4217.01" y="-42.4" font-family="sans-serif" font-weight="bold" font-size="14.00">Legend</text>
<polygon fill="#ffffb3" stroke="transparent" points="4004,-10 4004,-30 4024,-30 4024,-10 4004,-10"/>
<text text-anchor="start" x="4027.63" y="-15.4" font-family="sans-serif" font-size="14.00"> &#160;Declarations</text>
<polygon fill="#8dd3c7" stroke="transparent" points="4117,-10 4117,-30 4137,-30 4137,-10 4117,-10"/>
<text text-anchor="start" x="4140.73" y="-15.4" font-family="sans-serif" font-size="14.00"> &#160;Module</text>
<polygon fill="#80b1d3" stroke="transparent" points="4203,-10 4203,-30 4223,-30 4223,-10 4203,-10"/>
<text text-anchor="start" x="4226.78" y="-15.4" font-family="sans-serif" font-size="14.00"> &#160;Bootstrap</text>
<polygon fill="#fdb462" stroke="transparent" points="4300,-10 4300,-30 4320,-30 4320,-10 4300,-10"/>
<text text-anchor="start" x="4323.67" y="-15.4" font-family="sans-serif" font-size="14.00"> &#160;Providers</text>
<polygon fill="#fb8072" stroke="transparent" points="4396,-10 4396,-30 4416,-30 4416,-10 4396,-10"/>
<text text-anchor="start" x="4419.73" y="-15.4" font-family="sans-serif" font-size="14.00"> &#160;Exports</text>
<g id="clust1" class="cluster">
<title>cluster_AppModule</title>
<polygon fill="none" stroke="black" stroke-dasharray="1,5" points="8,-70 8,-268 8468,-268 8468,-70 8,-70"/>
</g>
<g id="clust41" class="cluster">
<title>cluster_AppModule_imports</title>
<polygon fill="none" stroke="black" points="6518,-78 6518,-130 8460,-130 8460,-78 6518,-78"/>
</g>
<g id="clust43" class="cluster">
<title>cluster_AppModule_bootstrap</title>
<polygon fill="none" stroke="black" points="4357,-208 4357,-260 4481,-260 4481,-208 4357,-208"/>
</g>
<g id="clust2" class="cluster">
<title>cluster_AppModule_declarations</title>
<polygon fill="none" stroke="black" points="446,-78 446,-130 6510,-130 6510,-78 446,-78"/>
</g>
<g id="clust44" class="cluster">
<title>cluster_AppModule_providers</title>
<polygon fill="none" stroke="black" points="16,-78 16,-130 438,-130 438,-78 16,-78"/>
</g>
<!-- AppComponent -->
<g id="node1" class="node">
<title>AppComponent</title>
<polygon fill="#ffffb3" stroke="black" points="6501.94,-122 6396.06,-122 6396.06,-86 6501.94,-86 6501.94,-122"/>
<text text-anchor="middle" x="6449" y="-99.8" font-family="Times,serif" font-size="14.00">AppComponent</text>
</g>
<!-- AppModule -->
<g id="node39" class="node">
<title>AppModule</title>
<polygon fill="#8dd3c7" stroke="black" points="4460.66,-187 4457.66,-191 4436.66,-191 4433.66,-187 4377.34,-187 4377.34,-151 4460.66,-151 4460.66,-187"/>
<text text-anchor="middle" x="4419" y="-164.8" font-family="Times,serif" font-size="14.00">AppModule</text>
</g>
<!-- AppComponent&#45;&gt;AppModule -->
<g id="edge1" class="edge">
<title>AppComponent&#45;&gt;AppModule</title>
<path fill="none" stroke="black" d="M6449,-122.11C6449,-141.34 6449,-169 6449,-169 6449,-169 4470.93,-169 4470.93,-169"/>
<polygon fill="black" stroke="black" points="4470.93,-165.5 4460.93,-169 4470.93,-172.5 4470.93,-165.5"/>
</g>
<!-- DashboardComponent -->
<g id="node2" class="node">
<title>DashboardComponent</title>
<polygon fill="#ffffb3" stroke="black" points="6377.97,-122 6236.03,-122 6236.03,-86 6377.97,-86 6377.97,-122"/>
<text text-anchor="middle" x="6307" y="-99.8" font-family="Times,serif" font-size="14.00">DashboardComponent</text>
</g>
<!-- DashboardComponent&#45;&gt;AppModule -->
<g id="edge2" class="edge">
<title>DashboardComponent&#45;&gt;AppModule</title>
<path fill="none" stroke="black" d="M6307,-122.17C6307,-141.09 6307,-168 6307,-168 6307,-168 4471.08,-168 4471.08,-168"/>
<polygon fill="black" stroke="black" points="4471.08,-164.5 4461.08,-168 4471.08,-171.5 4471.08,-164.5"/>
</g>
<!-- NavbarComponent -->
<g id="node3" class="node">
<title>NavbarComponent</title>
<polygon fill="#ffffb3" stroke="black" points="6218.03,-122 6095.97,-122 6095.97,-86 6218.03,-86 6218.03,-122"/>
<text text-anchor="middle" x="6157" y="-99.8" font-family="Times,serif" font-size="14.00">NavbarComponent</text>
</g>
<!-- NavbarComponent&#45;&gt;AppModule -->
<g id="edge3" class="edge">
<title>NavbarComponent&#45;&gt;AppModule</title>
<path fill="none" stroke="black" d="M6157,-122.22C6157,-140.83 6157,-167 6157,-167 6157,-167 4470.67,-167 4470.67,-167"/>
<polygon fill="black" stroke="black" points="4470.67,-163.5 4460.67,-167 4470.67,-170.5 4470.67,-163.5"/>
</g>
<!-- SearchInputComponent -->
<g id="node4" class="node">
<title>SearchInputComponent</title>
<polygon fill="#ffffb3" stroke="black" points="6077.47,-122 5928.53,-122 5928.53,-86 6077.47,-86 6077.47,-122"/>
<text text-anchor="middle" x="6003" y="-99.8" font-family="Times,serif" font-size="14.00">SearchInputComponent</text>
</g>
<!-- SearchInputComponent&#45;&gt;AppModule -->
<g id="edge4" class="edge">
<title>SearchInputComponent&#45;&gt;AppModule</title>
<path fill="none" stroke="black" d="M6003,-122.3C6003,-140.27 6003,-165 6003,-165 6003,-165 4470.96,-165 4470.96,-165"/>
<polygon fill="black" stroke="black" points="4470.96,-161.5 4460.96,-165 4470.96,-168.5 4470.96,-161.5"/>
</g>
<!-- MenuComponent -->
<g id="node5" class="node">
<title>MenuComponent</title>
<polygon fill="#ffffb3" stroke="black" points="5910.99,-122 5797.01,-122 5797.01,-86 5910.99,-86 5910.99,-122"/>
<text text-anchor="middle" x="5854" y="-99.8" font-family="Times,serif" font-size="14.00">MenuComponent</text>
</g>
<!-- MenuComponent&#45;&gt;AppModule -->
<g id="edge5" class="edge">
<title>MenuComponent&#45;&gt;AppModule</title>
<path fill="none" stroke="black" d="M5854,-122C5854,-139.68 5854,-164 5854,-164 5854,-164 4470.78,-164 4470.78,-164"/>
<polygon fill="black" stroke="black" points="4470.78,-160.5 4460.78,-164 4470.78,-167.5 4470.78,-160.5"/>
</g>
<!-- LoginComponent -->
<g id="node6" class="node">
<title>LoginComponent</title>
<polygon fill="#ffffb3" stroke="black" points="5779.28,-122 5664.72,-122 5664.72,-86 5779.28,-86 5779.28,-122"/>
<text text-anchor="middle" x="5722" y="-99.8" font-family="Times,serif" font-size="14.00">LoginComponent</text>
</g>
<!-- LoginComponent&#45;&gt;AppModule -->
<g id="edge6" class="edge">
<title>LoginComponent&#45;&gt;AppModule</title>
<path fill="none" stroke="black" d="M5722,-122.02C5722,-139.37 5722,-163 5722,-163 5722,-163 4470.88,-163 4470.88,-163"/>
<polygon fill="black" stroke="black" points="4470.88,-159.5 4460.88,-163 4470.88,-166.5 4470.88,-159.5"/>
</g>
<!-- SettingsComponent -->
<g id="node7" class="node">
<title>SettingsComponent</title>
<polygon fill="#ffffb3" stroke="black" points="5646.45,-122 5519.55,-122 5519.55,-86 5646.45,-86 5646.45,-122"/>
<text text-anchor="middle" x="5583" y="-99.8" font-family="Times,serif" font-size="14.00">SettingsComponent</text>
</g>
<!-- SettingsComponent&#45;&gt;AppModule -->
<g id="edge7" class="edge">
<title>SettingsComponent&#45;&gt;AppModule</title>
<path fill="none" stroke="black" d="M5583,-122.04C5583,-138.73 5583,-161 5583,-161 5583,-161 4470.77,-161 4470.77,-161"/>
<polygon fill="black" stroke="black" points="4470.77,-157.5 4460.77,-161 4470.77,-164.5 4470.77,-157.5"/>
</g>
<!-- AdminComponent -->
<g id="node8" class="node">
<title>AdminComponent</title>
<polygon fill="#ffffb3" stroke="black" points="5502.22,-122 5381.78,-122 5381.78,-86 5502.22,-86 5502.22,-122"/>
<text text-anchor="middle" x="5442" y="-99.8" font-family="Times,serif" font-size="14.00">AdminComponent</text>
</g>
<!-- AdminComponent&#45;&gt;AppModule -->
<g id="edge8" class="edge">
<title>AdminComponent&#45;&gt;AppModule</title>
<path fill="none" stroke="black" d="M5442,-122.03C5442,-138.4 5442,-160 5442,-160 5442,-160 4470.69,-160 4470.69,-160"/>
<polygon fill="black" stroke="black" points="4470.69,-156.5 4460.69,-160 4470.69,-163.5 4470.69,-156.5"/>
</g>
<!-- ReviewsComponent -->
<g id="node9" class="node">
<title>ReviewsComponent</title>
<polygon fill="#ffffb3" stroke="black" points="5363.54,-122 5234.46,-122 5234.46,-86 5363.54,-86 5363.54,-122"/>
<text text-anchor="middle" x="5299" y="-99.8" font-family="Times,serif" font-size="14.00">ReviewsComponent</text>
</g>
<!-- ReviewsComponent&#45;&gt;AppModule -->
<g id="edge9" class="edge">
<title>ReviewsComponent&#45;&gt;AppModule</title>
<path fill="none" stroke="black" d="M5299,-122.28C5299,-137.95 5299,-158 5299,-158 5299,-158 4470.85,-158 4470.85,-158"/>
<polygon fill="black" stroke="black" points="4470.85,-154.5 4460.85,-158 4470.85,-161.5 4470.85,-154.5"/>
</g>
<!-- CourseDetailComponent -->
<g id="node10" class="node">
<title>CourseDetailComponent</title>
<polygon fill="#ffffb3" stroke="black" points="5216.7,-122 5061.3,-122 5061.3,-86 5216.7,-86 5216.7,-122"/>
<text text-anchor="middle" x="5139" y="-99.8" font-family="Times,serif" font-size="14.00">CourseDetailComponent</text>
</g>
<!-- CourseDetailComponent&#45;&gt;AppModule -->
<g id="edge10" class="edge">
<title>CourseDetailComponent&#45;&gt;AppModule</title>
<path fill="none" stroke="black" d="M5139,-122.24C5139,-137.57 5139,-157 5139,-157 5139,-157 4470.82,-157 4470.82,-157"/>
<polygon fill="black" stroke="black" points="4470.82,-153.5 4460.82,-157 4470.82,-160.5 4470.82,-153.5"/>
</g>
<!-- ReviewDetailComponent -->
<g id="node11" class="node">
<title>ReviewDetailComponent</title>
<polygon fill="#ffffb3" stroke="black" points="5043.3,-122 4884.7,-122 4884.7,-86 5043.3,-86 5043.3,-122"/>
<text text-anchor="middle" x="4964" y="-99.8" font-family="Times,serif" font-size="14.00">ReviewDetailComponent</text>
</g>
<!-- ReviewDetailComponent&#45;&gt;AppModule -->
<g id="edge11" class="edge">
<title>ReviewDetailComponent&#45;&gt;AppModule</title>
<path fill="none" stroke="black" d="M4964,-122.19C4964,-137.18 4964,-156 4964,-156 4964,-156 4470.86,-156 4470.86,-156"/>
<polygon fill="black" stroke="black" points="4470.86,-152.5 4460.86,-156 4470.86,-159.5 4470.86,-152.5"/>
</g>
<!-- DialogOnDelete -->
<g id="node12" class="node">
<title>DialogOnDelete</title>
<polygon fill="#ffffb3" stroke="black" points="4866.74,-122 4759.26,-122 4759.26,-86 4866.74,-86 4866.74,-122"/>
<text text-anchor="middle" x="4813" y="-99.8" font-family="Times,serif" font-size="14.00">DialogOnDelete</text>
</g>
<!-- DialogOnDelete&#45;&gt;AppModule -->
<g id="edge12" class="edge">
<title>DialogOnDelete&#45;&gt;AppModule</title>
<path fill="none" stroke="black" d="M4813,-122.05C4813,-136.37 4813,-154 4813,-154 4813,-154 4470.79,-154 4470.79,-154"/>
<polygon fill="black" stroke="black" points="4470.79,-150.5 4460.79,-154 4470.79,-157.5 4470.79,-150.5"/>
</g>
<!-- RegisterComponent -->
<g id="node13" class="node">
<title>RegisterComponent</title>
<polygon fill="#ffffb3" stroke="black" points="4740.98,-122 4613.02,-122 4613.02,-86 4740.98,-86 4740.98,-122"/>
<text text-anchor="middle" x="4677" y="-99.8" font-family="Times,serif" font-size="14.00">RegisterComponent</text>
</g>
<!-- RegisterComponent&#45;&gt;AppModule -->
<g id="edge13" class="edge">
<title>RegisterComponent&#45;&gt;AppModule</title>
<path fill="none" stroke="black" d="M4677,-122.25C4677,-136.18 4677,-153 4677,-153 4677,-153 4470.74,-153 4470.74,-153"/>
<polygon fill="black" stroke="black" points="4470.74,-149.5 4460.74,-153 4470.74,-156.5 4470.74,-149.5"/>
</g>
<!-- ForgotPasswordComponent -->
<g id="node14" class="node">
<title>ForgotPasswordComponent</title>
<polygon fill="#ffffb3" stroke="black" points="4595.32,-122 4422.68,-122 4422.68,-86 4595.32,-86 4595.32,-122"/>
<text text-anchor="middle" x="4509" y="-99.8" font-family="Times,serif" font-size="14.00">ForgotPasswordComponent</text>
</g>
<!-- ForgotPasswordComponent&#45;&gt;AppModule -->
<g id="edge14" class="edge">
<title>ForgotPasswordComponent&#45;&gt;AppModule</title>
<path fill="none" stroke="black" d="M4441.83,-122.11C4441.83,-122.11 4441.83,-140.99 4441.83,-140.99"/>
<polygon fill="black" stroke="black" points="4438.33,-140.99 4441.83,-150.99 4445.33,-140.99 4438.33,-140.99"/>
</g>
<!-- VerifyEmailComponent -->
<g id="node15" class="node">
<title>VerifyEmailComponent</title>
<polygon fill="#ffffb3" stroke="black" points="4404.8,-122 4253.2,-122 4253.2,-86 4404.8,-86 4404.8,-122"/>
<text text-anchor="middle" x="4329" y="-99.8" font-family="Times,serif" font-size="14.00">VerifyEmailComponent</text>
</g>
<!-- VerifyEmailComponent&#45;&gt;AppModule -->
<g id="edge15" class="edge">
<title>VerifyEmailComponent&#45;&gt;AppModule</title>
<path fill="none" stroke="black" d="M4390.91,-122.11C4390.91,-122.11 4390.91,-140.99 4390.91,-140.99"/>
<polygon fill="black" stroke="black" points="4387.41,-140.99 4390.91,-150.99 4394.41,-140.99 4387.41,-140.99"/>
</g>
<!-- CourseListComponent -->
<g id="node16" class="node">
<title>CourseListComponent</title>
<polygon fill="#ffffb3" stroke="black" points="4235.27,-122 4092.73,-122 4092.73,-86 4235.27,-86 4235.27,-122"/>
<text text-anchor="middle" x="4164" y="-99.8" font-family="Times,serif" font-size="14.00">CourseListComponent</text>
</g>
<!-- CourseListComponent&#45;&gt;AppModule -->
<g id="edge16" class="edge">
<title>CourseListComponent&#45;&gt;AppModule</title>
<path fill="none" stroke="black" d="M4164,-122.25C4164,-136.18 4164,-153 4164,-153 4164,-153 4367.18,-153 4367.18,-153"/>
<polygon fill="black" stroke="black" points="4367.18,-156.5 4377.18,-153 4367.18,-149.5 4367.18,-156.5"/>
</g>
<!-- CourseCardComponent -->
<g id="node17" class="node">
<title>CourseCardComponent</title>
<polygon fill="#ffffb3" stroke="black" points="4075.2,-122 3926.8,-122 3926.8,-86 4075.2,-86 4075.2,-122"/>
<text text-anchor="middle" x="4001" y="-99.8" font-family="Times,serif" font-size="14.00">CourseCardComponent</text>
</g>
<!-- CourseCardComponent&#45;&gt;AppModule -->
<g id="edge17" class="edge">
<title>CourseCardComponent&#45;&gt;AppModule</title>
<path fill="none" stroke="black" d="M4001,-122.05C4001,-136.37 4001,-154 4001,-154 4001,-154 4367.01,-154 4367.01,-154"/>
<polygon fill="black" stroke="black" points="4367.01,-157.5 4377.01,-154 4367.01,-150.5 4367.01,-157.5"/>
</g>
<!-- CourseGridComponent -->
<g id="node18" class="node">
<title>CourseGridComponent</title>
<polygon fill="#ffffb3" stroke="black" points="3909.15,-122 3762.85,-122 3762.85,-86 3909.15,-86 3909.15,-122"/>
<text text-anchor="middle" x="3836" y="-99.8" font-family="Times,serif" font-size="14.00">CourseGridComponent</text>
</g>
<!-- CourseGridComponent&#45;&gt;AppModule -->
<g id="edge18" class="edge">
<title>CourseGridComponent&#45;&gt;AppModule</title>
<path fill="none" stroke="black" d="M3836,-122.19C3836,-137.18 3836,-156 3836,-156 3836,-156 4367.07,-156 4367.07,-156"/>
<polygon fill="black" stroke="black" points="4367.07,-159.5 4377.07,-156 4367.07,-152.5 4367.07,-159.5"/>
</g>
<!-- CourseGridCardComponent -->
<g id="node19" class="node">
<title>CourseGridCardComponent</title>
<polygon fill="#ffffb3" stroke="black" points="3744.86,-122 3571.14,-122 3571.14,-86 3744.86,-86 3744.86,-122"/>
<text text-anchor="middle" x="3658" y="-99.8" font-family="Times,serif" font-size="14.00">CourseGridCardComponent</text>
</g>
<!-- CourseGridCardComponent&#45;&gt;AppModule -->
<g id="edge19" class="edge">
<title>CourseGridCardComponent&#45;&gt;AppModule</title>
<path fill="none" stroke="black" d="M3658,-122.24C3658,-137.57 3658,-157 3658,-157 3658,-157 4367.27,-157 4367.27,-157"/>
<polygon fill="black" stroke="black" points="4367.27,-160.5 4377.27,-157 4367.27,-153.5 4367.27,-160.5"/>
</g>
<!-- LogoutComponent -->
<g id="node20" class="node">
<title>LogoutComponent</title>
<polygon fill="#ffffb3" stroke="black" points="3552.78,-122 3431.22,-122 3431.22,-86 3552.78,-86 3552.78,-122"/>
<text text-anchor="middle" x="3492" y="-99.8" font-family="Times,serif" font-size="14.00">LogoutComponent</text>
</g>
<!-- LogoutComponent&#45;&gt;AppModule -->
<g id="edge20" class="edge">
<title>LogoutComponent&#45;&gt;AppModule</title>
<path fill="none" stroke="black" d="M3492,-122.28C3492,-137.95 3492,-158 3492,-158 3492,-158 4367.06,-158 4367.06,-158"/>
<polygon fill="black" stroke="black" points="4367.06,-161.5 4377.06,-158 4367.06,-154.5 4367.06,-161.5"/>
</g>
<!-- CreateReviewComponent -->
<g id="node21" class="node">
<title>CreateReviewComponent</title>
<polygon fill="#ffffb3" stroke="black" points="3413.13,-122 3252.87,-122 3252.87,-86 3413.13,-86 3413.13,-122"/>
<text text-anchor="middle" x="3333" y="-99.8" font-family="Times,serif" font-size="14.00">CreateReviewComponent</text>
</g>
<!-- CreateReviewComponent&#45;&gt;AppModule -->
<g id="edge21" class="edge">
<title>CreateReviewComponent&#45;&gt;AppModule</title>
<path fill="none" stroke="black" d="M3333,-122.03C3333,-138.4 3333,-160 3333,-160 3333,-160 4367.09,-160 4367.09,-160"/>
<polygon fill="black" stroke="black" points="4367.09,-163.5 4377.09,-160 4367.09,-156.5 4367.09,-163.5"/>
</g>
<!-- DialogReviewSubmission -->
<g id="node22" class="node">
<title>DialogReviewSubmission</title>
<polygon fill="#ffffb3" stroke="black" points="3235.21,-122 3072.79,-122 3072.79,-86 3235.21,-86 3235.21,-122"/>
<text text-anchor="middle" x="3154" y="-99.8" font-family="Times,serif" font-size="14.00">DialogReviewSubmission</text>
</g>
<!-- DialogReviewSubmission&#45;&gt;AppModule -->
<g id="edge22" class="edge">
<title>DialogReviewSubmission&#45;&gt;AppModule</title>
<path fill="none" stroke="black" d="M3154,-122.04C3154,-138.73 3154,-161 3154,-161 3154,-161 4367.27,-161 4367.27,-161"/>
<polygon fill="black" stroke="black" points="4367.27,-164.5 4377.27,-161 4367.27,-157.5 4367.27,-164.5"/>
</g>
<!-- DialogReviewTooShort -->
<g id="node23" class="node">
<title>DialogReviewTooShort</title>
<polygon fill="#ffffb3" stroke="black" points="3054.75,-122 2905.25,-122 2905.25,-86 3054.75,-86 3054.75,-122"/>
<text text-anchor="middle" x="2980" y="-99.8" font-family="Times,serif" font-size="14.00">DialogReviewTooShort</text>
</g>
<!-- DialogReviewTooShort&#45;&gt;AppModule -->
<g id="edge23" class="edge">
<title>DialogReviewTooShort&#45;&gt;AppModule</title>
<path fill="none" stroke="black" d="M2980,-122.02C2980,-139.37 2980,-163 2980,-163 2980,-163 4367.1,-163 4367.1,-163"/>
<polygon fill="black" stroke="black" points="4367.1,-166.5 4377.1,-163 4367.1,-159.5 4367.1,-166.5"/>
</g>
<!-- DialogNotLoggedIn -->
<g id="node24" class="node">
<title>DialogNotLoggedIn</title>
<polygon fill="#ffffb3" stroke="black" points="2886.53,-122 2757.47,-122 2757.47,-86 2886.53,-86 2886.53,-122"/>
<text text-anchor="middle" x="2822" y="-99.8" font-family="Times,serif" font-size="14.00">DialogNotLoggedIn</text>
</g>
<!-- DialogNotLoggedIn&#45;&gt;AppModule -->
<g id="edge24" class="edge">
<title>DialogNotLoggedIn&#45;&gt;AppModule</title>
<path fill="none" stroke="black" d="M2822,-122C2822,-139.68 2822,-164 2822,-164 2822,-164 4367.1,-164 4367.1,-164"/>
<polygon fill="black" stroke="black" points="4367.11,-167.5 4377.1,-164 4367.1,-160.5 4367.11,-167.5"/>
</g>
<!-- DialogNotVerified -->
<g id="node25" class="node">
<title>DialogNotVerified</title>
<polygon fill="#ffffb3" stroke="black" points="2738.74,-122 2617.26,-122 2617.26,-86 2738.74,-86 2738.74,-122"/>
<text text-anchor="middle" x="2678" y="-99.8" font-family="Times,serif" font-size="14.00">DialogNotVerified</text>
</g>
<!-- DialogNotVerified&#45;&gt;AppModule -->
<g id="edge25" class="edge">
<title>DialogNotVerified&#45;&gt;AppModule</title>
<path fill="none" stroke="black" d="M2678,-122.3C2678,-140.27 2678,-165 2678,-165 2678,-165 4367.25,-165 4367.25,-165"/>
<polygon fill="black" stroke="black" points="4367.25,-168.5 4377.25,-165 4367.25,-161.5 4367.25,-168.5"/>
</g>
<!-- DialogSendFeedback -->
<g id="node26" class="node">
<title>DialogSendFeedback</title>
<polygon fill="#ffffb3" stroke="black" points="2598.74,-122 2463.26,-122 2463.26,-86 2598.74,-86 2598.74,-122"/>
<text text-anchor="middle" x="2531" y="-99.8" font-family="Times,serif" font-size="14.00">DialogSendFeedback</text>
</g>
<!-- DialogSendFeedback&#45;&gt;AppModule -->
<g id="edge26" class="edge">
<title>DialogSendFeedback&#45;&gt;AppModule</title>
<path fill="none" stroke="black" d="M2531,-122.22C2531,-140.83 2531,-167 2531,-167 2531,-167 4366.92,-167 4366.92,-167"/>
<polygon fill="black" stroke="black" points="4366.92,-170.5 4376.92,-167 4366.92,-163.5 4366.92,-170.5"/>
</g>
<!-- EditComponent -->
<g id="node27" class="node">
<title>EditComponent</title>
<polygon fill="#ffffb3" stroke="black" points="2445.17,-122 2340.83,-122 2340.83,-86 2445.17,-86 2445.17,-122"/>
<text text-anchor="middle" x="2393" y="-99.8" font-family="Times,serif" font-size="14.00">EditComponent</text>
</g>
<!-- EditComponent&#45;&gt;AppModule -->
<g id="edge27" class="edge">
<title>EditComponent&#45;&gt;AppModule</title>
<path fill="none" stroke="black" d="M2393,-122.17C2393,-141.09 2393,-168 2393,-168 2393,-168 4367.15,-168 4367.15,-168"/>
<polygon fill="black" stroke="black" points="4367.15,-171.5 4377.15,-168 4367.15,-164.5 4367.15,-171.5"/>
</g>
<!-- ViewUserReviewsComponent -->
<g id="node28" class="node">
<title>ViewUserReviewsComponent</title>
<polygon fill="#ffffb3" stroke="black" points="2323.29,-122 2136.71,-122 2136.71,-86 2323.29,-86 2323.29,-122"/>
<text text-anchor="middle" x="2230" y="-99.8" font-family="Times,serif" font-size="14.00">ViewUserReviewsComponent</text>
</g>
<!-- ViewUserReviewsComponent&#45;&gt;AppModule -->
<g id="edge28" class="edge">
<title>ViewUserReviewsComponent&#45;&gt;AppModule</title>
<path fill="none" stroke="black" d="M2230,-122.11C2230,-141.34 2230,-169 2230,-169 2230,-169 4367.23,-169 4367.23,-169"/>
<polygon fill="black" stroke="black" points="4367.23,-172.5 4377.23,-169 4367.23,-165.5 4367.23,-172.5"/>
</g>
<!-- EditCourseMetadataComponent -->
<g id="node29" class="node">
<title>EditCourseMetadataComponent</title>
<polygon fill="#ffffb3" stroke="black" points="2119.41,-122 1922.59,-122 1922.59,-86 2119.41,-86 2119.41,-122"/>
<text text-anchor="middle" x="2021" y="-99.8" font-family="Times,serif" font-size="14.00">EditCourseMetadataComponent</text>
</g>
<!-- EditCourseMetadataComponent&#45;&gt;AppModule -->
<g id="edge29" class="edge">
<title>EditCourseMetadataComponent&#45;&gt;AppModule</title>
<path fill="none" stroke="black" d="M2021,-122.31C2021,-142.15 2021,-171 2021,-171 2021,-171 4367.12,-171 4367.12,-171"/>
<polygon fill="black" stroke="black" points="4367.12,-174.5 4377.12,-171 4367.12,-167.5 4367.12,-174.5"/>
</g>
<!-- SidenavComponent -->
<g id="node30" class="node">
<title>SidenavComponent</title>
<polygon fill="#ffffb3" stroke="black" points="1905.44,-122 1778.56,-122 1778.56,-86 1905.44,-86 1905.44,-122"/>
<text text-anchor="middle" x="1842" y="-99.8" font-family="Times,serif" font-size="14.00">SidenavComponent</text>
</g>
<!-- SidenavComponent&#45;&gt;AppModule -->
<g id="edge30" class="edge">
<title>SidenavComponent&#45;&gt;AppModule</title>
<path fill="none" stroke="black" d="M1842,-122.22C1842,-142.37 1842,-172 1842,-172 1842,-172 4367.21,-172 4367.21,-172"/>
<polygon fill="black" stroke="black" points="4367.21,-175.5 4377.21,-172 4367.21,-168.5 4367.21,-175.5"/>
</g>
<!-- FooterComponent -->
<g id="node31" class="node">
<title>FooterComponent</title>
<polygon fill="#ffffb3" stroke="black" points="1760.88,-122 1643.12,-122 1643.12,-86 1760.88,-86 1760.88,-122"/>
<text text-anchor="middle" x="1702" y="-99.8" font-family="Times,serif" font-size="14.00">FooterComponent</text>
</g>
<!-- FooterComponent&#45;&gt;AppModule -->
<g id="edge31" class="edge">
<title>FooterComponent&#45;&gt;AppModule</title>
<path fill="none" stroke="black" d="M1702,-122.03C1702,-142.77 1702,-174 1702,-174 1702,-174 4367.14,-174 4367.14,-174"/>
<polygon fill="black" stroke="black" points="4367.14,-177.5 4377.14,-174 4367.14,-170.5 4367.14,-177.5"/>
</g>
<!-- SadPandaComponent -->
<g id="node32" class="node">
<title>SadPandaComponent</title>
<polygon fill="#ffffb3" stroke="black" points="1625.04,-122 1488.96,-122 1488.96,-86 1625.04,-86 1625.04,-122"/>
<text text-anchor="middle" x="1557" y="-99.8" font-family="Times,serif" font-size="14.00">SadPandaComponent</text>
</g>
<!-- SadPandaComponent&#45;&gt;AppModule -->
<g id="edge32" class="edge">
<title>SadPandaComponent&#45;&gt;AppModule</title>
<path fill="none" stroke="black" d="M1557,-122.28C1557,-143.32 1557,-175 1557,-175 1557,-175 4367.16,-175 4367.16,-175"/>
<polygon fill="black" stroke="black" points="4367.16,-178.5 4377.16,-175 4367.16,-171.5 4367.16,-178.5"/>
</g>
<!-- ThankyouComponent -->
<g id="node33" class="node">
<title>ThankyouComponent</title>
<polygon fill="#ffffb3" stroke="black" points="1471.1,-122 1332.9,-122 1332.9,-86 1471.1,-86 1471.1,-122"/>
<text text-anchor="middle" x="1402" y="-99.8" font-family="Times,serif" font-size="14.00">ThankyouComponent</text>
</g>
<!-- ThankyouComponent&#45;&gt;AppModule -->
<g id="edge33" class="edge">
<title>ThankyouComponent&#45;&gt;AppModule</title>
<path fill="none" stroke="black" d="M1402,-122.17C1402,-143.5 1402,-176 1402,-176 1402,-176 4367.21,-176 4367.21,-176"/>
<polygon fill="black" stroke="black" points="4367.21,-179.5 4377.21,-176 4367.21,-172.5 4367.21,-179.5"/>
</g>
<!-- NothingHereComponent -->
<g id="node34" class="node">
<title>NothingHereComponent</title>
<polygon fill="#ffffb3" stroke="black" points="1315.42,-122 1160.58,-122 1160.58,-86 1315.42,-86 1315.42,-122"/>
<text text-anchor="middle" x="1238" y="-99.8" font-family="Times,serif" font-size="14.00">NothingHereComponent</text>
</g>
<!-- NothingHereComponent&#45;&gt;AppModule -->
<g id="edge34" class="edge">
<title>NothingHereComponent&#45;&gt;AppModule</title>
<path fill="none" stroke="black" d="M1238,-122.29C1238,-144.21 1238,-178 1238,-178 1238,-178 4367.32,-178 4367.32,-178"/>
<polygon fill="black" stroke="black" points="4367.32,-181.5 4377.32,-178 4367.32,-174.5 4367.32,-181.5"/>
</g>
<!-- PandaPartyComponent -->
<g id="node35" class="node">
<title>PandaPartyComponent</title>
<polygon fill="#ffffb3" stroke="black" points="1142.59,-122 997.41,-122 997.41,-86 1142.59,-86 1142.59,-122"/>
<text text-anchor="middle" x="1070" y="-99.8" font-family="Times,serif" font-size="14.00">PandaPartyComponent</text>
</g>
<!-- PandaPartyComponent&#45;&gt;AppModule -->
<g id="edge35" class="edge">
<title>PandaPartyComponent&#45;&gt;AppModule</title>
<path fill="none" stroke="black" d="M1070,-122.16C1070,-144.35 1070,-179 1070,-179 1070,-179 4367.26,-179 4367.26,-179"/>
<polygon fill="black" stroke="black" points="4367.26,-182.5 4377.26,-179 4367.26,-175.5 4367.26,-182.5"/>
</g>
<!-- StarRatingComponent -->
<g id="node36" class="node">
<title>StarRatingComponent</title>
<polygon fill="#ffffb3" stroke="black" points="979.71,-122 838.29,-122 838.29,-86 979.71,-86 979.71,-122"/>
<text text-anchor="middle" x="909" y="-99.8" font-family="Times,serif" font-size="14.00">StarRatingComponent</text>
</g>
<!-- StarRatingComponent&#45;&gt;AppModule -->
<g id="edge36" class="edge">
<title>StarRatingComponent&#45;&gt;AppModule</title>
<path fill="none" stroke="black" d="M909,-122.25C909,-145.02 909,-181 909,-181 909,-181 4367.14,-181 4367.14,-181"/>
<polygon fill="black" stroke="black" points="4367.14,-184.5 4377.14,-181 4367.14,-177.5 4367.14,-184.5"/>
</g>
<!-- ReviewHelpfulnessComponent -->
<g id="node37" class="node">
<title>ReviewHelpfulnessComponent</title>
<polygon fill="#ffffb3" stroke="black" points="820.46,-122 629.54,-122 629.54,-86 820.46,-86 820.46,-122"/>
<text text-anchor="middle" x="725" y="-99.8" font-family="Times,serif" font-size="14.00">ReviewHelpfulnessComponent</text>
</g>
<!-- ReviewHelpfulnessComponent&#45;&gt;AppModule -->
<g id="edge37" class="edge">
<title>ReviewHelpfulnessComponent&#45;&gt;AppModule</title>
<path fill="none" stroke="black" d="M725,-122.09C725,-145.13 725,-182 725,-182 725,-182 4367.2,-182 4367.2,-182"/>
<polygon fill="black" stroke="black" points="4367.2,-185.5 4377.2,-182 4367.2,-178.5 4367.2,-185.5"/>
</g>
<!-- CreateCourseComponent -->
<g id="node38" class="node">
<title>CreateCourseComponent</title>
<polygon fill="#ffffb3" stroke="black" points="611.52,-122 454.48,-122 454.48,-86 611.52,-86 611.52,-122"/>
<text text-anchor="middle" x="533" y="-99.8" font-family="Times,serif" font-size="14.00">CreateCourseComponent</text>
</g>
<!-- CreateCourseComponent&#45;&gt;AppModule -->
<g id="edge38" class="edge">
<title>CreateCourseComponent&#45;&gt;AppModule</title>
<path fill="none" stroke="black" d="M533,-122.32C533,-145.66 533,-183 533,-183 533,-183 4367.34,-183 4367.34,-183"/>
<polygon fill="black" stroke="black" points="4367.34,-186.5 4377.34,-183 4367.34,-179.5 4367.34,-186.5"/>
</g>
<!-- AppComponent  -->
<g id="node52" class="node">
<title>AppComponent </title>
<polygon fill="#80b1d3" stroke="black" points="4473.44,-252 4364.56,-252 4364.56,-216 4473.44,-216 4473.44,-252"/>
<text text-anchor="middle" x="4419" y="-229.8" font-family="Times,serif" font-size="14.00">AppComponent </text>
</g>
<!-- AppModule&#45;&gt;AppComponent  -->
<g id="edge51" class="edge">
<title>AppModule&#45;&gt;AppComponent </title>
<path fill="none" stroke="black" stroke-dasharray="1,5" d="M4419,-187.11C4419,-187.11 4419,-205.99 4419,-205.99"/>
<polygon fill="black" stroke="black" points="4415.5,-205.99 4419,-215.99 4422.5,-205.99 4415.5,-205.99"/>
</g>
<!-- BrowserModule -->
<g id="node40" class="node">
<title>BrowserModule</title>
<polygon fill="#8dd3c7" stroke="black" points="8452.47,-122 8449.47,-126 8428.47,-126 8425.47,-122 8345.53,-122 8345.53,-86 8452.47,-86 8452.47,-122"/>
<text text-anchor="middle" x="8399" y="-99.8" font-family="Times,serif" font-size="14.00">BrowserModule</text>
</g>
<!-- BrowserModule&#45;&gt;AppModule -->
<g id="edge39" class="edge">
<title>BrowserModule&#45;&gt;AppModule</title>
<path fill="none" stroke="black" d="M8399,-122.2C8399,-146.36 8399,-186 8399,-186 8399,-186 4470.67,-186 4470.67,-186"/>
<polygon fill="black" stroke="black" points="4470.67,-182.5 4460.67,-186 4470.67,-189.5 4470.67,-182.5"/>
</g>
<!-- AppRoutingModule -->
<g id="node41" class="node">
<title>AppRoutingModule</title>
<polygon fill="#8dd3c7" stroke="black" points="8327.27,-122 8324.27,-126 8303.27,-126 8300.27,-122 8198.73,-122 8198.73,-86 8327.27,-86 8327.27,-122"/>
<text text-anchor="middle" x="8263" y="-99.8" font-family="Times,serif" font-size="14.00">AppRoutingModule</text>
</g>
<!-- AppRoutingModule&#45;&gt;AppModule -->
<g id="edge40" class="edge">
<title>AppRoutingModule&#45;&gt;AppModule</title>
<path fill="none" stroke="black" d="M8263,-122.38C8263,-146.28 8263,-185 8263,-185 8263,-185 4470.86,-185 4470.86,-185"/>
<polygon fill="black" stroke="black" points="4470.86,-181.5 4460.86,-185 4470.86,-188.5 4470.86,-181.5"/>
</g>
<!-- BrowserAnimationsModule -->
<g id="node42" class="node">
<title>BrowserAnimationsModule</title>
<polygon fill="#8dd3c7" stroke="black" points="8180.3,-122 8177.3,-126 8156.3,-126 8153.3,-122 8007.7,-122 8007.7,-86 8180.3,-86 8180.3,-122"/>
<text text-anchor="middle" x="8094" y="-99.8" font-family="Times,serif" font-size="14.00">BrowserAnimationsModule</text>
</g>
<!-- BrowserAnimationsModule&#45;&gt;AppModule -->
<g id="edge41" class="edge">
<title>BrowserAnimationsModule&#45;&gt;AppModule</title>
<path fill="none" stroke="black" d="M8094,-122.32C8094,-145.66 8094,-183 8094,-183 8094,-183 4470.91,-183 4470.91,-183"/>
<polygon fill="black" stroke="black" points="4470.91,-179.5 4460.91,-183 4470.91,-186.5 4470.91,-179.5"/>
</g>
<!-- MaterialModule -->
<g id="node43" class="node">
<title>MaterialModule</title>
<polygon fill="#8dd3c7" stroke="black" points="7989.47,-122 7986.47,-126 7965.47,-126 7962.47,-122 7882.53,-122 7882.53,-86 7989.47,-86 7989.47,-122"/>
<text text-anchor="middle" x="7936" y="-99.8" font-family="Times,serif" font-size="14.00">MaterialModule</text>
</g>
<!-- MaterialModule&#45;&gt;AppModule -->
<g id="edge42" class="edge">
<title>MaterialModule&#45;&gt;AppModule</title>
<path fill="none" stroke="black" d="M7936,-122.09C7936,-145.13 7936,-182 7936,-182 7936,-182 4470.95,-182 4470.95,-182"/>
<polygon fill="black" stroke="black" points="4470.95,-178.5 4460.95,-182 4470.95,-185.5 4470.95,-178.5"/>
</g>
<!-- AngularFireModule.initializeApp(args) -->
<g id="node44" class="node">
<title>AngularFireModule.initializeApp(args)</title>
<polygon fill="#8dd3c7" stroke="black" points="7864.71,-122 7861.71,-126 7840.71,-126 7837.71,-122 7627.29,-122 7627.29,-86 7864.71,-86 7864.71,-122"/>
<text text-anchor="middle" x="7746" y="-99.8" font-family="Times,serif" font-size="14.00">AngularFireModule.initializeApp(args)</text>
</g>
<!-- AngularFireModule.initializeApp(args)&#45;&gt;AppModule -->
<g id="edge43" class="edge">
<title>AngularFireModule.initializeApp(args)&#45;&gt;AppModule</title>
<path fill="none" stroke="black" d="M7746,-122.25C7746,-145.02 7746,-181 7746,-181 7746,-181 4470.76,-181 4470.76,-181"/>
<polygon fill="black" stroke="black" points="4470.76,-177.5 4460.76,-181 4470.76,-184.5 4470.76,-177.5"/>
</g>
<!-- AngularFireAuthModule -->
<g id="node45" class="node">
<title>AngularFireAuthModule</title>
<polygon fill="#8dd3c7" stroke="black" points="7608.97,-122 7605.97,-126 7584.97,-126 7581.97,-122 7453.03,-122 7453.03,-86 7608.97,-86 7608.97,-122"/>
<text text-anchor="middle" x="7531" y="-99.8" font-family="Times,serif" font-size="14.00">AngularFireAuthModule</text>
</g>
<!-- AngularFireAuthModule&#45;&gt;AppModule -->
<g id="edge44" class="edge">
<title>AngularFireAuthModule&#45;&gt;AppModule</title>
<path fill="none" stroke="black" d="M7531,-122.16C7531,-144.35 7531,-179 7531,-179 7531,-179 4470.93,-179 4470.93,-179"/>
<polygon fill="black" stroke="black" points="4470.93,-175.5 4460.93,-179 4470.93,-182.5 4470.93,-175.5"/>
</g>
<!-- AngularFirestoreModule -->
<g id="node46" class="node">
<title>AngularFirestoreModule</title>
<polygon fill="#8dd3c7" stroke="black" points="7434.68,-122 7431.68,-126 7410.68,-126 7407.68,-122 7279.32,-122 7279.32,-86 7434.68,-86 7434.68,-122"/>
<text text-anchor="middle" x="7357" y="-99.8" font-family="Times,serif" font-size="14.00">AngularFirestoreModule</text>
</g>
<!-- AngularFirestoreModule&#45;&gt;AppModule -->
<g id="edge45" class="edge">
<title>AngularFirestoreModule&#45;&gt;AppModule</title>
<path fill="none" stroke="black" d="M7357,-122.29C7357,-144.21 7357,-178 7357,-178 7357,-178 4470.81,-178 4470.81,-178"/>
<polygon fill="black" stroke="black" points="4470.81,-174.5 4460.81,-178 4470.81,-181.5 4470.81,-174.5"/>
</g>
<!-- AngularFireAnalyticsModule -->
<g id="node47" class="node">
<title>AngularFireAnalyticsModule</title>
<polygon fill="#8dd3c7" stroke="black" points="7261.62,-122 7258.62,-126 7237.62,-126 7234.62,-122 7080.38,-122 7080.38,-86 7261.62,-86 7261.62,-122"/>
<text text-anchor="middle" x="7171" y="-99.8" font-family="Times,serif" font-size="14.00">AngularFireAnalyticsModule</text>
</g>
<!-- AngularFireAnalyticsModule&#45;&gt;AppModule -->
<g id="edge46" class="edge">
<title>AngularFireAnalyticsModule&#45;&gt;AppModule</title>
<path fill="none" stroke="black" d="M7171,-122.17C7171,-143.5 7171,-176 7171,-176 7171,-176 4470.85,-176 4470.85,-176"/>
<polygon fill="black" stroke="black" points="4470.85,-172.5 4460.85,-176 4470.85,-179.5 4470.85,-172.5"/>
</g>
<!-- HttpClientModule -->
<g id="node48" class="node">
<title>HttpClientModule</title>
<polygon fill="#8dd3c7" stroke="black" points="7062.16,-122 7059.16,-126 7038.16,-126 7035.16,-122 6943.84,-122 6943.84,-86 7062.16,-86 7062.16,-122"/>
<text text-anchor="middle" x="7003" y="-99.8" font-family="Times,serif" font-size="14.00">HttpClientModule</text>
</g>
<!-- HttpClientModule&#45;&gt;AppModule -->
<g id="edge47" class="edge">
<title>HttpClientModule&#45;&gt;AppModule</title>
<path fill="none" stroke="black" d="M7003,-122.28C7003,-143.32 7003,-175 7003,-175 7003,-175 4470.9,-175 4470.9,-175"/>
<polygon fill="black" stroke="black" points="4470.9,-171.5 4460.9,-175 4470.9,-178.5 4470.9,-171.5"/>
</g>
<!-- FormsModule -->
<g id="node49" class="node">
<title>FormsModule</title>
<polygon fill="#8dd3c7" stroke="black" points="6925.83,-122 6922.83,-126 6901.83,-126 6898.83,-122 6830.17,-122 6830.17,-86 6925.83,-86 6925.83,-122"/>
<text text-anchor="middle" x="6878" y="-99.8" font-family="Times,serif" font-size="14.00">FormsModule</text>
</g>
<!-- FormsModule&#45;&gt;AppModule -->
<g id="edge48" class="edge">
<title>FormsModule&#45;&gt;AppModule</title>
<path fill="none" stroke="black" d="M6878,-122.03C6878,-142.77 6878,-174 6878,-174 6878,-174 4470.91,-174 4470.91,-174"/>
<polygon fill="black" stroke="black" points="4470.91,-170.5 4460.91,-174 4470.91,-177.5 4470.91,-170.5"/>
</g>
<!-- ReactiveFormsModule -->
<g id="node50" class="node">
<title>ReactiveFormsModule</title>
<polygon fill="#8dd3c7" stroke="black" points="6812.3,-122 6809.3,-126 6788.3,-126 6785.3,-122 6667.7,-122 6667.7,-86 6812.3,-86 6812.3,-122"/>
<text text-anchor="middle" x="6740" y="-99.8" font-family="Times,serif" font-size="14.00">ReactiveFormsModule</text>
</g>
<!-- ReactiveFormsModule&#45;&gt;AppModule -->
<g id="edge49" class="edge">
<title>ReactiveFormsModule&#45;&gt;AppModule</title>
<path fill="none" stroke="black" d="M6740,-122.22C6740,-142.37 6740,-172 6740,-172 6740,-172 4470.77,-172 4470.77,-172"/>
<polygon fill="black" stroke="black" points="4470.77,-168.5 4460.77,-172 4470.77,-175.5 4470.77,-168.5"/>
</g>
<!-- FlexLayoutModule -->
<g id="node51" class="node">
<title>FlexLayoutModule</title>
<polygon fill="#8dd3c7" stroke="black" points="6650.1,-122 6647.1,-126 6626.1,-126 6623.1,-122 6525.9,-122 6525.9,-86 6650.1,-86 6650.1,-122"/>
<text text-anchor="middle" x="6588" y="-99.8" font-family="Times,serif" font-size="14.00">FlexLayoutModule</text>
</g>
<!-- FlexLayoutModule&#45;&gt;AppModule -->
<g id="edge50" class="edge">
<title>FlexLayoutModule&#45;&gt;AppModule</title>
<path fill="none" stroke="black" d="M6588,-122.31C6588,-142.15 6588,-171 6588,-171 6588,-171 4470.87,-171 4470.87,-171"/>
<polygon fill="black" stroke="black" points="4470.87,-167.5 4460.87,-171 4470.87,-174.5 4470.87,-167.5"/>
</g>
<!-- ScreenTrackingService -->
<g id="node53" class="node">
<title>ScreenTrackingService</title>
<ellipse fill="#fdb462" stroke="black" cx="329" cy="-104" rx="101.24" ry="18"/>
<text text-anchor="middle" x="329" y="-99.8" font-family="Times,serif" font-size="14.00">ScreenTrackingService</text>
</g>
<!-- ScreenTrackingService&#45;&gt;AppModule -->
<g id="edge52" class="edge">
<title>ScreenTrackingService&#45;&gt;AppModule</title>
<path fill="none" stroke="black" d="M329,-122.38C329,-146.28 329,-185 329,-185 329,-185 4367.19,-185 4367.19,-185"/>
<polygon fill="black" stroke="black" points="4367.19,-188.5 4377.19,-185 4367.19,-181.5 4367.19,-188.5"/>
</g>
<!-- UserTrackingService -->
<g id="node54" class="node">
<title>UserTrackingService</title>
<ellipse fill="#fdb462" stroke="black" cx="117" cy="-104" rx="93.15" ry="18"/>
<text text-anchor="middle" x="117" y="-99.8" font-family="Times,serif" font-size="14.00">UserTrackingService</text>
</g>
<!-- UserTrackingService&#45;&gt;AppModule -->
<g id="edge53" class="edge">
<title>UserTrackingService&#45;&gt;AppModule</title>
<path fill="none" stroke="black" d="M117,-122.2C117,-146.36 117,-186 117,-186 117,-186 4367.11,-186 4367.11,-186"/>
<polygon fill="black" stroke="black" points="4367.11,-189.5 4377.11,-186 4367.11,-182.5 4367.11,-189.5"/>
</g>
</g>
</svg>
