<?xml version="1.0" encoding="UTF-8" standalone="no"?>
<!DOCTYPE svg PUBLIC "-//W3C//DTD SVG 1.1//EN"
 "http://www.w3.org/Graphics/SVG/1.1/DTD/svg11.dtd">
<!-- Generated by graphviz version 2.47.0 (20210316.0004)
 -->
<!-- Title: dependencies Pages: 1 -->
<svg width="8308pt" height="284pt"
 viewBox="0.00 0.00 8308.00 284.00" xmlns="http://www.w3.org/2000/svg" xmlns:xlink="http://www.w3.org/1999/xlink">
<g id="graph0" class="graph" transform="scale(1 1) rotate(0) translate(4 280)">
<title>dependencies</title>
<polygon fill="white" stroke="transparent" points="-4,4 -4,-280 8304,-280 8304,4 -4,4"/>
<text text-anchor="start" x="4129.01" y="-42.4" font-family="sans-serif" font-weight="bold" font-size="14.00">Legend</text>
<polygon fill="#ffffb3" stroke="transparent" points="3916,-10 3916,-30 3936,-30 3936,-10 3916,-10"/>
<text text-anchor="start" x="3939.63" y="-15.4" font-family="sans-serif" font-size="14.00"> &#160;Declarations</text>
<polygon fill="#8dd3c7" stroke="transparent" points="4029,-10 4029,-30 4049,-30 4049,-10 4029,-10"/>
<text text-anchor="start" x="4052.73" y="-15.4" font-family="sans-serif" font-size="14.00"> &#160;Module</text>
<polygon fill="#80b1d3" stroke="transparent" points="4115,-10 4115,-30 4135,-30 4135,-10 4115,-10"/>
<text text-anchor="start" x="4138.78" y="-15.4" font-family="sans-serif" font-size="14.00"> &#160;Bootstrap</text>
<polygon fill="#fdb462" stroke="transparent" points="4212,-10 4212,-30 4232,-30 4232,-10 4212,-10"/>
<text text-anchor="start" x="4235.67" y="-15.4" font-family="sans-serif" font-size="14.00"> &#160;Providers</text>
<polygon fill="#fb8072" stroke="transparent" points="4308,-10 4308,-30 4328,-30 4328,-10 4308,-10"/>
<text text-anchor="start" x="4331.73" y="-15.4" font-family="sans-serif" font-size="14.00"> &#160;Exports</text>
<g id="clust1" class="cluster">
<title>cluster_AppModule</title>
<polygon fill="none" stroke="black" stroke-dasharray="1,5" points="8,-70 8,-268 8292,-268 8292,-70 8,-70"/>
</g>
<g id="clust43" class="cluster">
<title>cluster_AppModule_providers</title>
<polygon fill="none" stroke="black" points="7862,-78 7862,-130 8284,-130 8284,-78 7862,-78"/>
</g>
<g id="clust40" class="cluster">
<title>cluster_AppModule_imports</title>
<polygon fill="none" stroke="black" points="5912,-78 5912,-130 7854,-130 7854,-78 5912,-78"/>
</g>
<g id="clust2" class="cluster">
<title>cluster_AppModule_declarations</title>
<polygon fill="none" stroke="black" points="16,-78 16,-130 5904,-130 5904,-78 16,-78"/>
</g>
<g id="clust42" class="cluster">
<title>cluster_AppModule_bootstrap</title>
<polygon fill="none" stroke="black" points="4145,-208 4145,-260 4269,-260 4269,-208 4145,-208"/>
</g>
<!-- AppComponent -->
<g id="node1" class="node">
<title>AppComponent</title>
<polygon fill="#ffffb3" stroke="black" points="5895.94,-122 5790.06,-122 5790.06,-86 5895.94,-86 5895.94,-122"/>
<text text-anchor="middle" x="5843" y="-99.8" font-family="Times,serif" font-size="14.00">AppComponent</text>
</g>
<!-- AppModule -->
<g id="node38" class="node">
<title>AppModule</title>
<polygon fill="#8dd3c7" stroke="black" points="4248.66,-187 4245.66,-191 4224.66,-191 4221.66,-187 4165.34,-187 4165.34,-151 4248.66,-151 4248.66,-187"/>
<text text-anchor="middle" x="4207" y="-164.8" font-family="Times,serif" font-size="14.00">AppModule</text>
</g>
<!-- AppComponent&#45;&gt;AppModule -->
<g id="edge1" class="edge">
<title>AppComponent&#45;&gt;AppModule</title>
<path fill="none" stroke="black" d="M5843,-122.22C5843,-140.83 5843,-167 5843,-167 5843,-167 4258.67,-167 4258.67,-167"/>
<polygon fill="black" stroke="black" points="4258.67,-163.5 4248.67,-167 4258.67,-170.5 4258.67,-163.5"/>
</g>
<!-- DashboardComponent -->
<g id="node2" class="node">
<title>DashboardComponent</title>
<polygon fill="#ffffb3" stroke="black" points="5771.97,-122 5630.03,-122 5630.03,-86 5771.97,-86 5771.97,-122"/>
<text text-anchor="middle" x="5701" y="-99.8" font-family="Times,serif" font-size="14.00">DashboardComponent</text>
</g>
<!-- DashboardComponent&#45;&gt;AppModule -->
<g id="edge2" class="edge">
<title>DashboardComponent&#45;&gt;AppModule</title>
<path fill="none" stroke="black" d="M5701,-122.3C5701,-140.27 5701,-165 5701,-165 5701,-165 4258.91,-165 4258.91,-165"/>
<polygon fill="black" stroke="black" points="4258.91,-161.5 4248.91,-165 4258.91,-168.5 4258.91,-161.5"/>
</g>
<!-- NavbarComponent -->
<g id="node3" class="node">
<title>NavbarComponent</title>
<polygon fill="#ffffb3" stroke="black" points="5612.03,-122 5489.97,-122 5489.97,-86 5612.03,-86 5612.03,-122"/>
<text text-anchor="middle" x="5551" y="-99.8" font-family="Times,serif" font-size="14.00">NavbarComponent</text>
</g>
<!-- NavbarComponent&#45;&gt;AppModule -->
<g id="edge3" class="edge">
<title>NavbarComponent&#45;&gt;AppModule</title>
<path fill="none" stroke="black" d="M5551,-122C5551,-139.68 5551,-164 5551,-164 5551,-164 4258.7,-164 4258.7,-164"/>
<polygon fill="black" stroke="black" points="4258.7,-160.5 4248.7,-164 4258.7,-167.5 4258.7,-160.5"/>
</g>
<!-- SearchInputComponent -->
<g id="node4" class="node">
<title>SearchInputComponent</title>
<polygon fill="#ffffb3" stroke="black" points="5471.47,-122 5322.53,-122 5322.53,-86 5471.47,-86 5471.47,-122"/>
<text text-anchor="middle" x="5397" y="-99.8" font-family="Times,serif" font-size="14.00">SearchInputComponent</text>
</g>
<!-- SearchInputComponent&#45;&gt;AppModule -->
<g id="edge4" class="edge">
<title>SearchInputComponent&#45;&gt;AppModule</title>
<path fill="none" stroke="black" d="M5397,-122.02C5397,-139.37 5397,-163 5397,-163 5397,-163 4259,-163 4259,-163"/>
<polygon fill="black" stroke="black" points="4259,-159.5 4249,-163 4259,-166.5 4259,-159.5"/>
</g>
<!-- MenuComponent -->
<g id="node5" class="node">
<title>MenuComponent</title>
<polygon fill="#ffffb3" stroke="black" points="5304.99,-122 5191.01,-122 5191.01,-86 5304.99,-86 5304.99,-122"/>
<text text-anchor="middle" x="5248" y="-99.8" font-family="Times,serif" font-size="14.00">MenuComponent</text>
</g>
<!-- MenuComponent&#45;&gt;AppModule -->
<g id="edge5" class="edge">
<title>MenuComponent&#45;&gt;AppModule</title>
<path fill="none" stroke="black" d="M5248,-122.04C5248,-138.73 5248,-161 5248,-161 5248,-161 4258.77,-161 4258.77,-161"/>
<polygon fill="black" stroke="black" points="4258.77,-157.5 4248.77,-161 4258.77,-164.5 4258.77,-157.5"/>
</g>
<!-- LoginComponent -->
<g id="node6" class="node">
<title>LoginComponent</title>
<polygon fill="#ffffb3" stroke="black" points="5173.28,-122 5058.72,-122 5058.72,-86 5173.28,-86 5173.28,-122"/>
<text text-anchor="middle" x="5116" y="-99.8" font-family="Times,serif" font-size="14.00">LoginComponent</text>
</g>
<!-- LoginComponent&#45;&gt;AppModule -->
<g id="edge6" class="edge">
<title>LoginComponent&#45;&gt;AppModule</title>
<path fill="none" stroke="black" d="M5116,-122.03C5116,-138.4 5116,-160 5116,-160 5116,-160 4258.72,-160 4258.72,-160"/>
<polygon fill="black" stroke="black" points="4258.72,-156.5 4248.72,-160 4258.72,-163.5 4258.72,-156.5"/>
</g>
<!-- SettingsComponent -->
<g id="node7" class="node">
<title>SettingsComponent</title>
<polygon fill="#ffffb3" stroke="black" points="5040.45,-122 4913.55,-122 4913.55,-86 5040.45,-86 5040.45,-122"/>
<text text-anchor="middle" x="4977" y="-99.8" font-family="Times,serif" font-size="14.00">SettingsComponent</text>
</g>
<!-- SettingsComponent&#45;&gt;AppModule -->
<g id="edge7" class="edge">
<title>SettingsComponent&#45;&gt;AppModule</title>
<path fill="none" stroke="black" d="M4977,-122.28C4977,-137.95 4977,-158 4977,-158 4977,-158 4258.67,-158 4258.67,-158"/>
<polygon fill="black" stroke="black" points="4258.67,-154.5 4248.67,-158 4258.67,-161.5 4258.67,-154.5"/>
</g>
<!-- AdminComponent -->
<g id="node8" class="node">
<title>AdminComponent</title>
<polygon fill="#ffffb3" stroke="black" points="4896.22,-122 4775.78,-122 4775.78,-86 4896.22,-86 4896.22,-122"/>
<text text-anchor="middle" x="4836" y="-99.8" font-family="Times,serif" font-size="14.00">AdminComponent</text>
</g>
<!-- AdminComponent&#45;&gt;AppModule -->
<g id="edge8" class="edge">
<title>AdminComponent&#45;&gt;AppModule</title>
<path fill="none" stroke="black" d="M4836,-122.24C4836,-137.57 4836,-157 4836,-157 4836,-157 4258.76,-157 4258.76,-157"/>
<polygon fill="black" stroke="black" points="4258.76,-153.5 4248.76,-157 4258.76,-160.5 4258.76,-153.5"/>
</g>
<!-- ReviewsComponent -->
<g id="node9" class="node">
<title>ReviewsComponent</title>
<polygon fill="#ffffb3" stroke="black" points="4757.54,-122 4628.46,-122 4628.46,-86 4757.54,-86 4757.54,-122"/>
<text text-anchor="middle" x="4693" y="-99.8" font-family="Times,serif" font-size="14.00">ReviewsComponent</text>
</g>
<!-- ReviewsComponent&#45;&gt;AppModule -->
<g id="edge9" class="edge">
<title>ReviewsComponent&#45;&gt;AppModule</title>
<path fill="none" stroke="black" d="M4693,-122.19C4693,-137.18 4693,-156 4693,-156 4693,-156 4258.86,-156 4258.86,-156"/>
<polygon fill="black" stroke="black" points="4258.86,-152.5 4248.86,-156 4258.86,-159.5 4258.86,-152.5"/>
</g>
<!-- CourseDetailComponent -->
<g id="node10" class="node">
<title>CourseDetailComponent</title>
<polygon fill="#ffffb3" stroke="black" points="4610.7,-122 4455.3,-122 4455.3,-86 4610.7,-86 4610.7,-122"/>
<text text-anchor="middle" x="4533" y="-99.8" font-family="Times,serif" font-size="14.00">CourseDetailComponent</text>
</g>
<!-- CourseDetailComponent&#45;&gt;AppModule -->
<g id="edge10" class="edge">
<title>CourseDetailComponent&#45;&gt;AppModule</title>
<path fill="none" stroke="black" d="M4533,-122.05C4533,-136.37 4533,-154 4533,-154 4533,-154 4258.95,-154 4258.95,-154"/>
<polygon fill="black" stroke="black" points="4258.95,-150.5 4248.95,-154 4258.95,-157.5 4258.95,-150.5"/>
</g>
<!-- ReviewDetailComponent -->
<g id="node11" class="node">
<title>ReviewDetailComponent</title>
<polygon fill="#ffffb3" stroke="black" points="4437.3,-122 4278.7,-122 4278.7,-86 4437.3,-86 4437.3,-122"/>
<text text-anchor="middle" x="4358" y="-99.8" font-family="Times,serif" font-size="14.00">ReviewDetailComponent</text>
</g>
<!-- ReviewDetailComponent&#45;&gt;AppModule -->
<g id="edge11" class="edge">
<title>ReviewDetailComponent&#45;&gt;AppModule</title>
<path fill="none" stroke="black" d="M4358,-122.25C4358,-136.18 4358,-153 4358,-153 4358,-153 4258.66,-153 4258.66,-153"/>
<polygon fill="black" stroke="black" points="4258.66,-149.5 4248.66,-153 4258.66,-156.5 4258.66,-149.5"/>
</g>
<!-- DialogOnDelete -->
<g id="node12" class="node">
<title>DialogOnDelete</title>
<polygon fill="#ffffb3" stroke="black" points="4260.74,-122 4153.26,-122 4153.26,-86 4260.74,-86 4260.74,-122"/>
<text text-anchor="middle" x="4207" y="-99.8" font-family="Times,serif" font-size="14.00">DialogOnDelete</text>
</g>
<!-- DialogOnDelete&#45;&gt;AppModule -->
<g id="edge12" class="edge">
<title>DialogOnDelete&#45;&gt;AppModule</title>
<path fill="none" stroke="black" d="M4207,-122.11C4207,-122.11 4207,-140.99 4207,-140.99"/>
<polygon fill="black" stroke="black" points="4203.5,-140.99 4207,-150.99 4210.5,-140.99 4203.5,-140.99"/>
</g>
<!-- RegisterComponent -->
<g id="node13" class="node">
<title>RegisterComponent</title>
<polygon fill="#ffffb3" stroke="black" points="4134.98,-122 4007.02,-122 4007.02,-86 4134.98,-86 4134.98,-122"/>
<text text-anchor="middle" x="4071" y="-99.8" font-family="Times,serif" font-size="14.00">RegisterComponent</text>
</g>
<!-- RegisterComponent&#45;&gt;AppModule -->
<g id="edge13" class="edge">
<title>RegisterComponent&#45;&gt;AppModule</title>
<path fill="none" stroke="black" d="M4071,-122.25C4071,-136.18 4071,-153 4071,-153 4071,-153 4155.09,-153 4155.09,-153"/>
<polygon fill="black" stroke="black" points="4155.09,-156.5 4165.09,-153 4155.09,-149.5 4155.09,-156.5"/>
</g>
<!-- ForgotPasswordComponent -->
<g id="node14" class="node">
<title>ForgotPasswordComponent</title>
<polygon fill="#ffffb3" stroke="black" points="3989.32,-122 3816.68,-122 3816.68,-86 3989.32,-86 3989.32,-122"/>
<text text-anchor="middle" x="3903" y="-99.8" font-family="Times,serif" font-size="14.00">ForgotPasswordComponent</text>
</g>
<!-- ForgotPasswordComponent&#45;&gt;AppModule -->
<g id="edge14" class="edge">
<title>ForgotPasswordComponent&#45;&gt;AppModule</title>
<path fill="none" stroke="black" d="M3903,-122.05C3903,-136.37 3903,-154 3903,-154 3903,-154 4155.05,-154 4155.05,-154"/>
<polygon fill="black" stroke="black" points="4155.05,-157.5 4165.05,-154 4155.05,-150.5 4155.05,-157.5"/>
</g>
<!-- VerifyEmailComponent -->
<g id="node15" class="node">
<title>VerifyEmailComponent</title>
<polygon fill="#ffffb3" stroke="black" points="3798.8,-122 3647.2,-122 3647.2,-86 3798.8,-86 3798.8,-122"/>
<text text-anchor="middle" x="3723" y="-99.8" font-family="Times,serif" font-size="14.00">VerifyEmailComponent</text>
</g>
<!-- VerifyEmailComponent&#45;&gt;AppModule -->
<g id="edge15" class="edge">
<title>VerifyEmailComponent&#45;&gt;AppModule</title>
<path fill="none" stroke="black" d="M3723,-122.19C3723,-137.18 3723,-156 3723,-156 3723,-156 4155.32,-156 4155.32,-156"/>
<polygon fill="black" stroke="black" points="4155.32,-159.5 4165.32,-156 4155.32,-152.5 4155.32,-159.5"/>
</g>
<!-- CourseListComponent -->
<g id="node16" class="node">
<title>CourseListComponent</title>
<polygon fill="#ffffb3" stroke="black" points="3629.27,-122 3486.73,-122 3486.73,-86 3629.27,-86 3629.27,-122"/>
<text text-anchor="middle" x="3558" y="-99.8" font-family="Times,serif" font-size="14.00">CourseListComponent</text>
</g>
<!-- CourseListComponent&#45;&gt;AppModule -->
<g id="edge16" class="edge">
<title>CourseListComponent&#45;&gt;AppModule</title>
<path fill="none" stroke="black" d="M3558,-122.24C3558,-137.57 3558,-157 3558,-157 3558,-157 4154.92,-157 4154.92,-157"/>
<polygon fill="black" stroke="black" points="4154.92,-160.5 4164.92,-157 4154.92,-153.5 4154.92,-160.5"/>
</g>
<!-- CourseCardComponent -->
<g id="node17" class="node">
<title>CourseCardComponent</title>
<polygon fill="#ffffb3" stroke="black" points="3469.2,-122 3320.8,-122 3320.8,-86 3469.2,-86 3469.2,-122"/>
<text text-anchor="middle" x="3395" y="-99.8" font-family="Times,serif" font-size="14.00">CourseCardComponent</text>
</g>
<!-- CourseCardComponent&#45;&gt;AppModule -->
<g id="edge17" class="edge">
<title>CourseCardComponent&#45;&gt;AppModule</title>
<path fill="none" stroke="black" d="M3395,-122.28C3395,-137.95 3395,-158 3395,-158 3395,-158 4155.34,-158 4155.34,-158"/>
<polygon fill="black" stroke="black" points="4155.34,-161.5 4165.34,-158 4155.34,-154.5 4155.34,-161.5"/>
</g>
<!-- CourseGridComponent -->
<g id="node18" class="node">
<title>CourseGridComponent</title>
<polygon fill="#ffffb3" stroke="black" points="3303.15,-122 3156.85,-122 3156.85,-86 3303.15,-86 3303.15,-122"/>
<text text-anchor="middle" x="3230" y="-99.8" font-family="Times,serif" font-size="14.00">CourseGridComponent</text>
</g>
<!-- CourseGridComponent&#45;&gt;AppModule -->
<g id="edge18" class="edge">
<title>CourseGridComponent&#45;&gt;AppModule</title>
<path fill="none" stroke="black" d="M3230,-122.03C3230,-138.4 3230,-160 3230,-160 3230,-160 4155.33,-160 4155.33,-160"/>
<polygon fill="black" stroke="black" points="4155.33,-163.5 4165.33,-160 4155.33,-156.5 4155.33,-163.5"/>
</g>
<!-- CourseGridCardComponent -->
<g id="node19" class="node">
<title>CourseGridCardComponent</title>
<polygon fill="#ffffb3" stroke="black" points="3138.86,-122 2965.14,-122 2965.14,-86 3138.86,-86 3138.86,-122"/>
<text text-anchor="middle" x="3052" y="-99.8" font-family="Times,serif" font-size="14.00">CourseGridCardComponent</text>
</g>
<!-- CourseGridCardComponent&#45;&gt;AppModule -->
<g id="edge19" class="edge">
<title>CourseGridCardComponent&#45;&gt;AppModule</title>
<path fill="none" stroke="black" d="M3052,-122.04C3052,-138.73 3052,-161 3052,-161 3052,-161 4155.21,-161 4155.21,-161"/>
<polygon fill="black" stroke="black" points="4155.21,-164.5 4165.21,-161 4155.21,-157.5 4155.21,-164.5"/>
</g>
<!-- LogoutComponent -->
<g id="node20" class="node">
<title>LogoutComponent</title>
<polygon fill="#ffffb3" stroke="black" points="2946.78,-122 2825.22,-122 2825.22,-86 2946.78,-86 2946.78,-122"/>
<text text-anchor="middle" x="2886" y="-99.8" font-family="Times,serif" font-size="14.00">LogoutComponent</text>
</g>
<!-- LogoutComponent&#45;&gt;AppModule -->
<g id="edge20" class="edge">
<title>LogoutComponent&#45;&gt;AppModule</title>
<path fill="none" stroke="black" d="M2886,-122.02C2886,-139.37 2886,-163 2886,-163 2886,-163 4155.28,-163 4155.28,-163"/>
<polygon fill="black" stroke="black" points="4155.28,-166.5 4165.28,-163 4155.28,-159.5 4155.28,-166.5"/>
</g>
<!-- CreateReviewComponent -->
<g id="node21" class="node">
<title>CreateReviewComponent</title>
<polygon fill="#ffffb3" stroke="black" points="2807.13,-122 2646.87,-122 2646.87,-86 2807.13,-86 2807.13,-122"/>
<text text-anchor="middle" x="2727" y="-99.8" font-family="Times,serif" font-size="14.00">CreateReviewComponent</text>
</g>
<!-- CreateReviewComponent&#45;&gt;AppModule -->
<g id="edge21" class="edge">
<title>CreateReviewComponent&#45;&gt;AppModule</title>
<path fill="none" stroke="black" d="M2727,-122C2727,-139.68 2727,-164 2727,-164 2727,-164 4155.09,-164 4155.09,-164"/>
<polygon fill="black" stroke="black" points="4155.09,-167.5 4165.09,-164 4155.09,-160.5 4155.09,-167.5"/>
</g>
<!-- DialogReviewSubmission -->
<g id="node22" class="node">
<title>DialogReviewSubmission</title>
<polygon fill="#ffffb3" stroke="black" points="2629.21,-122 2466.79,-122 2466.79,-86 2629.21,-86 2629.21,-122"/>
<text text-anchor="middle" x="2548" y="-99.8" font-family="Times,serif" font-size="14.00">DialogReviewSubmission</text>
</g>
<!-- DialogReviewSubmission&#45;&gt;AppModule -->
<g id="edge22" class="edge">
<title>DialogReviewSubmission&#45;&gt;AppModule</title>
<path fill="none" stroke="black" d="M2548,-122.3C2548,-140.27 2548,-165 2548,-165 2548,-165 4155.16,-165 4155.16,-165"/>
<polygon fill="black" stroke="black" points="4155.16,-168.5 4165.16,-165 4155.16,-161.5 4155.16,-168.5"/>
</g>
<!-- DialogReviewTooShort -->
<g id="node23" class="node">
<title>DialogReviewTooShort</title>
<polygon fill="#ffffb3" stroke="black" points="2448.75,-122 2299.25,-122 2299.25,-86 2448.75,-86 2448.75,-122"/>
<text text-anchor="middle" x="2374" y="-99.8" font-family="Times,serif" font-size="14.00">DialogReviewTooShort</text>
</g>
<!-- DialogReviewTooShort&#45;&gt;AppModule -->
<g id="edge23" class="edge">
<title>DialogReviewTooShort&#45;&gt;AppModule</title>
<path fill="none" stroke="black" d="M2374,-122.22C2374,-140.83 2374,-167 2374,-167 2374,-167 4155.27,-167 4155.27,-167"/>
<polygon fill="black" stroke="black" points="4155.27,-170.5 4165.27,-167 4155.27,-163.5 4155.27,-170.5"/>
</g>
<!-- DialogNotLoggedIn -->
<g id="node24" class="node">
<title>DialogNotLoggedIn</title>
<polygon fill="#ffffb3" stroke="black" points="2280.53,-122 2151.47,-122 2151.47,-86 2280.53,-86 2280.53,-122"/>
<text text-anchor="middle" x="2216" y="-99.8" font-family="Times,serif" font-size="14.00">DialogNotLoggedIn</text>
</g>
<!-- DialogNotLoggedIn&#45;&gt;AppModule -->
<g id="edge24" class="edge">
<title>DialogNotLoggedIn&#45;&gt;AppModule</title>
<path fill="none" stroke="black" d="M2216,-122.17C2216,-141.09 2216,-168 2216,-168 2216,-168 4154.96,-168 4154.96,-168"/>
<polygon fill="black" stroke="black" points="4154.96,-171.5 4164.96,-168 4154.96,-164.5 4154.96,-171.5"/>
</g>
<!-- DialogNotVerified -->
<g id="node25" class="node">
<title>DialogNotVerified</title>
<polygon fill="#ffffb3" stroke="black" points="2132.74,-122 2011.26,-122 2011.26,-86 2132.74,-86 2132.74,-122"/>
<text text-anchor="middle" x="2072" y="-99.8" font-family="Times,serif" font-size="14.00">DialogNotVerified</text>
</g>
<!-- DialogNotVerified&#45;&gt;AppModule -->
<g id="edge25" class="edge">
<title>DialogNotVerified&#45;&gt;AppModule</title>
<path fill="none" stroke="black" d="M2072,-122.11C2072,-141.34 2072,-169 2072,-169 2072,-169 4155.31,-169 4155.31,-169"/>
<polygon fill="black" stroke="black" points="4155.31,-172.5 4165.31,-169 4155.31,-165.5 4155.31,-172.5"/>
</g>
<!-- DialogSendFeedback -->
<g id="node26" class="node">
<title>DialogSendFeedback</title>
<polygon fill="#ffffb3" stroke="black" points="1992.74,-122 1857.26,-122 1857.26,-86 1992.74,-86 1992.74,-122"/>
<text text-anchor="middle" x="1925" y="-99.8" font-family="Times,serif" font-size="14.00">DialogSendFeedback</text>
</g>
<!-- DialogSendFeedback&#45;&gt;AppModule -->
<g id="edge26" class="edge">
<title>DialogSendFeedback&#45;&gt;AppModule</title>
<path fill="none" stroke="black" d="M1925,-122.31C1925,-142.15 1925,-171 1925,-171 1925,-171 4154.95,-171 4154.95,-171"/>
<polygon fill="black" stroke="black" points="4154.95,-174.5 4164.95,-171 4154.95,-167.5 4154.95,-174.5"/>
</g>
<!-- EditComponent -->
<g id="node27" class="node">
<title>EditComponent</title>
<polygon fill="#ffffb3" stroke="black" points="1839.17,-122 1734.83,-122 1734.83,-86 1839.17,-86 1839.17,-122"/>
<text text-anchor="middle" x="1787" y="-99.8" font-family="Times,serif" font-size="14.00">EditComponent</text>
</g>
<!-- EditComponent&#45;&gt;AppModule -->
<g id="edge27" class="edge">
<title>EditComponent&#45;&gt;AppModule</title>
<path fill="none" stroke="black" d="M1787,-122.22C1787,-142.37 1787,-172 1787,-172 1787,-172 4155.25,-172 4155.25,-172"/>
<polygon fill="black" stroke="black" points="4155.25,-175.5 4165.25,-172 4155.25,-168.5 4155.25,-175.5"/>
</g>
<!-- ViewUserReviewsComponent -->
<g id="node28" class="node">
<title>ViewUserReviewsComponent</title>
<polygon fill="#ffffb3" stroke="black" points="1717.29,-122 1530.71,-122 1530.71,-86 1717.29,-86 1717.29,-122"/>
<text text-anchor="middle" x="1624" y="-99.8" font-family="Times,serif" font-size="14.00">ViewUserReviewsComponent</text>
</g>
<!-- ViewUserReviewsComponent&#45;&gt;AppModule -->
<g id="edge28" class="edge">
<title>ViewUserReviewsComponent&#45;&gt;AppModule</title>
<path fill="none" stroke="black" d="M1624,-122.03C1624,-142.77 1624,-174 1624,-174 1624,-174 4155.12,-174 4155.12,-174"/>
<polygon fill="black" stroke="black" points="4155.12,-177.5 4165.12,-174 4155.12,-170.5 4155.12,-177.5"/>
</g>
<!-- EditCourseMetadataComponent -->
<g id="node29" class="node">
<title>EditCourseMetadataComponent</title>
<polygon fill="#ffffb3" stroke="black" points="1513.41,-122 1316.59,-122 1316.59,-86 1513.41,-86 1513.41,-122"/>
<text text-anchor="middle" x="1415" y="-99.8" font-family="Times,serif" font-size="14.00">EditCourseMetadataComponent</text>
</g>
<!-- EditCourseMetadataComponent&#45;&gt;AppModule -->
<g id="edge29" class="edge">
<title>EditCourseMetadataComponent&#45;&gt;AppModule</title>
<path fill="none" stroke="black" d="M1415,-122.28C1415,-143.32 1415,-175 1415,-175 1415,-175 4155.09,-175 4155.09,-175"/>
<polygon fill="black" stroke="black" points="4155.09,-178.5 4165.09,-175 4155.09,-171.5 4155.09,-178.5"/>
</g>
<!-- SidenavComponent -->
<g id="node30" class="node">
<title>SidenavComponent</title>
<polygon fill="#ffffb3" stroke="black" points="1299.44,-122 1172.56,-122 1172.56,-86 1299.44,-86 1299.44,-122"/>
<text text-anchor="middle" x="1236" y="-99.8" font-family="Times,serif" font-size="14.00">SidenavComponent</text>
</g>
<!-- SidenavComponent&#45;&gt;AppModule -->
<g id="edge30" class="edge">
<title>SidenavComponent&#45;&gt;AppModule</title>
<path fill="none" stroke="black" d="M1236,-122.17C1236,-143.5 1236,-176 1236,-176 1236,-176 4155.29,-176 4155.29,-176"/>
<polygon fill="black" stroke="black" points="4155.29,-179.5 4165.29,-176 4155.29,-172.5 4155.29,-179.5"/>
</g>
<!-- FooterComponent -->
<g id="node31" class="node">
<title>FooterComponent</title>
<polygon fill="#ffffb3" stroke="black" points="1154.88,-122 1037.12,-122 1037.12,-86 1154.88,-86 1154.88,-122"/>
<text text-anchor="middle" x="1096" y="-99.8" font-family="Times,serif" font-size="14.00">FooterComponent</text>
</g>
<!-- FooterComponent&#45;&gt;AppModule -->
<g id="edge31" class="edge">
<title>FooterComponent&#45;&gt;AppModule</title>
<path fill="none" stroke="black" d="M1096,-122.29C1096,-144.21 1096,-178 1096,-178 1096,-178 4155.08,-178 4155.08,-178"/>
<polygon fill="black" stroke="black" points="4155.08,-181.5 4165.08,-178 4155.08,-174.5 4155.08,-181.5"/>
</g>
<!-- SadPandaComponent -->
<g id="node32" class="node">
<title>SadPandaComponent</title>
<polygon fill="#ffffb3" stroke="black" points="1019.04,-122 882.96,-122 882.96,-86 1019.04,-86 1019.04,-122"/>
<text text-anchor="middle" x="951" y="-99.8" font-family="Times,serif" font-size="14.00">SadPandaComponent</text>
</g>
<!-- SadPandaComponent&#45;&gt;AppModule -->
<g id="edge32" class="edge">
<title>SadPandaComponent&#45;&gt;AppModule</title>
<path fill="none" stroke="black" d="M951,-122.16C951,-144.35 951,-179 951,-179 951,-179 4155.24,-179 4155.24,-179"/>
<polygon fill="black" stroke="black" points="4155.24,-182.5 4165.24,-179 4155.24,-175.5 4155.24,-182.5"/>
</g>
<!-- ThankyouComponent -->
<g id="node33" class="node">
<title>ThankyouComponent</title>
<polygon fill="#ffffb3" stroke="black" points="865.1,-122 726.9,-122 726.9,-86 865.1,-86 865.1,-122"/>
<text text-anchor="middle" x="796" y="-99.8" font-family="Times,serif" font-size="14.00">ThankyouComponent</text>
</g>
<!-- ThankyouComponent&#45;&gt;AppModule -->
<g id="edge33" class="edge">
<title>ThankyouComponent&#45;&gt;AppModule</title>
<path fill="none" stroke="black" d="M796,-122.25C796,-145.02 796,-181 796,-181 796,-181 4155.1,-181 4155.1,-181"/>
<polygon fill="black" stroke="black" points="4155.1,-184.5 4165.1,-181 4155.1,-177.5 4155.1,-184.5"/>
</g>
<!-- NothingHereComponent -->
<g id="node34" class="node">
<title>NothingHereComponent</title>
<polygon fill="#ffffb3" stroke="black" points="709.42,-122 554.58,-122 554.58,-86 709.42,-86 709.42,-122"/>
<text text-anchor="middle" x="632" y="-99.8" font-family="Times,serif" font-size="14.00">NothingHereComponent</text>
</g>
<!-- NothingHereComponent&#45;&gt;AppModule -->
<g id="edge34" class="edge">
<title>NothingHereComponent&#45;&gt;AppModule</title>
<path fill="none" stroke="black" d="M632,-122.09C632,-145.13 632,-182 632,-182 632,-182 4155.3,-182 4155.3,-182"/>
<polygon fill="black" stroke="black" points="4155.3,-185.5 4165.3,-182 4155.3,-178.5 4155.3,-185.5"/>
</g>
<!-- PandaPartyComponent -->
<g id="node35" class="node">
<title>PandaPartyComponent</title>
<polygon fill="#ffffb3" stroke="black" points="536.59,-122 391.41,-122 391.41,-86 536.59,-86 536.59,-122"/>
<text text-anchor="middle" x="464" y="-99.8" font-family="Times,serif" font-size="14.00">PandaPartyComponent</text>
</g>
<!-- PandaPartyComponent&#45;&gt;AppModule -->
<g id="edge35" class="edge">
<title>PandaPartyComponent&#45;&gt;AppModule</title>
<path fill="none" stroke="black" d="M464,-122.32C464,-145.66 464,-183 464,-183 464,-183 4155.29,-183 4155.29,-183"/>
<polygon fill="black" stroke="black" points="4155.29,-186.5 4165.29,-183 4155.28,-179.5 4155.29,-186.5"/>
</g>
<!-- StarRatingComponent -->
<g id="node36" class="node">
<title>StarRatingComponent</title>
<polygon fill="#ffffb3" stroke="black" points="373.71,-122 232.29,-122 232.29,-86 373.71,-86 373.71,-122"/>
<text text-anchor="middle" x="303" y="-99.8" font-family="Times,serif" font-size="14.00">StarRatingComponent</text>
</g>
<!-- StarRatingComponent&#45;&gt;AppModule -->
<g id="edge36" class="edge">
<title>StarRatingComponent&#45;&gt;AppModule</title>
<path fill="none" stroke="black" d="M303,-122.38C303,-146.28 303,-185 303,-185 303,-185 4155.14,-185 4155.14,-185"/>
<polygon fill="black" stroke="black" points="4155.14,-188.5 4165.14,-185 4155.14,-181.5 4155.14,-188.5"/>
</g>
<!-- ReviewHelpfulnessComponent -->
<g id="node37" class="node">
<title>ReviewHelpfulnessComponent</title>
<polygon fill="#ffffb3" stroke="black" points="214.46,-122 23.54,-122 23.54,-86 214.46,-86 214.46,-122"/>
<text text-anchor="middle" x="119" y="-99.8" font-family="Times,serif" font-size="14.00">ReviewHelpfulnessComponent</text>
</g>
<!-- ReviewHelpfulnessComponent&#45;&gt;AppModule -->
<g id="edge37" class="edge">
<title>ReviewHelpfulnessComponent&#45;&gt;AppModule</title>
<path fill="none" stroke="black" d="M119,-122.2C119,-146.36 119,-186 119,-186 119,-186 4155.21,-186 4155.21,-186"/>
<polygon fill="black" stroke="black" points="4155.21,-189.5 4165.21,-186 4155.21,-182.5 4155.21,-189.5"/>
</g>
<!-- AppComponent  -->
<g id="node51" class="node">
<title>AppComponent </title>
<polygon fill="#80b1d3" stroke="black" points="4261.44,-252 4152.56,-252 4152.56,-216 4261.44,-216 4261.44,-252"/>
<text text-anchor="middle" x="4207" y="-229.8" font-family="Times,serif" font-size="14.00">AppComponent </text>
</g>
<!-- AppModule&#45;&gt;AppComponent  -->
<g id="edge50" class="edge">
<title>AppModule&#45;&gt;AppComponent </title>
<path fill="none" stroke="black" stroke-dasharray="1,5" d="M4207,-187.11C4207,-187.11 4207,-205.99 4207,-205.99"/>
<polygon fill="black" stroke="black" points="4203.5,-205.99 4207,-215.99 4210.5,-205.99 4203.5,-205.99"/>
</g>
<!-- BrowserModule -->
<g id="node39" class="node">
<title>BrowserModule</title>
<polygon fill="#8dd3c7" stroke="black" points="7846.47,-122 7843.47,-126 7822.47,-126 7819.47,-122 7739.53,-122 7739.53,-86 7846.47,-86 7846.47,-122"/>
<text text-anchor="middle" x="7793" y="-99.8" font-family="Times,serif" font-size="14.00">BrowserModule</text>
</g>
<!-- BrowserModule&#45;&gt;AppModule -->
<g id="edge38" class="edge">
<title>BrowserModule&#45;&gt;AppModule</title>
<path fill="none" stroke="black" d="M7793,-122.32C7793,-145.66 7793,-183 7793,-183 7793,-183 4258.83,-183 4258.83,-183"/>
<polygon fill="black" stroke="black" points="4258.83,-179.5 4248.83,-183 4258.83,-186.5 4258.83,-179.5"/>
</g>
<!-- AppRoutingModule -->
<g id="node40" class="node">
<title>AppRoutingModule</title>
<polygon fill="#8dd3c7" stroke="black" points="7721.27,-122 7718.27,-126 7697.27,-126 7694.27,-122 7592.73,-122 7592.73,-86 7721.27,-86 7721.27,-122"/>
<text text-anchor="middle" x="7657" y="-99.8" font-family="Times,serif" font-size="14.00">AppRoutingModule</text>
</g>
<!-- AppRoutingModule&#45;&gt;AppModule -->
<g id="edge39" class="edge">
<title>AppRoutingModule&#45;&gt;AppModule</title>
<path fill="none" stroke="black" d="M7657,-122.09C7657,-145.13 7657,-182 7657,-182 7657,-182 4258.76,-182 4258.76,-182"/>
<polygon fill="black" stroke="black" points="4258.76,-178.5 4248.76,-182 4258.76,-185.5 4258.76,-178.5"/>
</g>
<!-- BrowserAnimationsModule -->
<g id="node41" class="node">
<title>BrowserAnimationsModule</title>
<polygon fill="#8dd3c7" stroke="black" points="7574.3,-122 7571.3,-126 7550.3,-126 7547.3,-122 7401.7,-122 7401.7,-86 7574.3,-86 7574.3,-122"/>
<text text-anchor="middle" x="7488" y="-99.8" font-family="Times,serif" font-size="14.00">BrowserAnimationsModule</text>
</g>
<!-- BrowserAnimationsModule&#45;&gt;AppModule -->
<g id="edge40" class="edge">
<title>BrowserAnimationsModule&#45;&gt;AppModule</title>
<path fill="none" stroke="black" d="M7488,-122.25C7488,-145.02 7488,-181 7488,-181 7488,-181 4258.78,-181 4258.78,-181"/>
<polygon fill="black" stroke="black" points="4258.78,-177.5 4248.78,-181 4258.78,-184.5 4258.78,-177.5"/>
</g>
<!-- MaterialModule -->
<g id="node42" class="node">
<title>MaterialModule</title>
<polygon fill="#8dd3c7" stroke="black" points="7383.47,-122 7380.47,-126 7359.47,-126 7356.47,-122 7276.53,-122 7276.53,-86 7383.47,-86 7383.47,-122"/>
<text text-anchor="middle" x="7330" y="-99.8" font-family="Times,serif" font-size="14.00">MaterialModule</text>
</g>
<!-- MaterialModule&#45;&gt;AppModule -->
<g id="edge41" class="edge">
<title>MaterialModule&#45;&gt;AppModule</title>
<path fill="none" stroke="black" d="M7330,-122.16C7330,-144.35 7330,-179 7330,-179 7330,-179 4258.79,-179 4258.79,-179"/>
<polygon fill="black" stroke="black" points="4258.79,-175.5 4248.79,-179 4258.79,-182.5 4258.79,-175.5"/>
</g>
<!-- AngularFireModule.initializeApp(args) -->
<g id="node43" class="node">
<title>AngularFireModule.initializeApp(args)</title>
<polygon fill="#8dd3c7" stroke="black" points="7258.71,-122 7255.71,-126 7234.71,-126 7231.71,-122 7021.29,-122 7021.29,-86 7258.71,-86 7258.71,-122"/>
<text text-anchor="middle" x="7140" y="-99.8" font-family="Times,serif" font-size="14.00">AngularFireModule.initializeApp(args)</text>
</g>
<!-- AngularFireModule.initializeApp(args)&#45;&gt;AppModule -->
<g id="edge42" class="edge">
<title>AngularFireModule.initializeApp(args)&#45;&gt;AppModule</title>
<path fill="none" stroke="black" d="M7140,-122.29C7140,-144.21 7140,-178 7140,-178 7140,-178 4258.74,-178 4258.74,-178"/>
<polygon fill="black" stroke="black" points="4258.74,-174.5 4248.74,-178 4258.74,-181.5 4258.74,-174.5"/>
</g>
<!-- AngularFireAuthModule -->
<g id="node44" class="node">
<title>AngularFireAuthModule</title>
<polygon fill="#8dd3c7" stroke="black" points="7002.97,-122 6999.97,-126 6978.97,-126 6975.97,-122 6847.03,-122 6847.03,-86 7002.97,-86 7002.97,-122"/>
<text text-anchor="middle" x="6925" y="-99.8" font-family="Times,serif" font-size="14.00">AngularFireAuthModule</text>
</g>
<!-- AngularFireAuthModule&#45;&gt;AppModule -->
<g id="edge43" class="edge">
<title>AngularFireAuthModule&#45;&gt;AppModule</title>
<path fill="none" stroke="black" d="M6925,-122.17C6925,-143.5 6925,-176 6925,-176 6925,-176 4258.88,-176 4258.88,-176"/>
<polygon fill="black" stroke="black" points="4258.88,-172.5 4248.88,-176 4258.88,-179.5 4258.88,-172.5"/>
</g>
<!-- AngularFirestoreModule -->
<g id="node45" class="node">
<title>AngularFirestoreModule</title>
<polygon fill="#8dd3c7" stroke="black" points="6828.68,-122 6825.68,-126 6804.68,-126 6801.68,-122 6673.32,-122 6673.32,-86 6828.68,-86 6828.68,-122"/>
<text text-anchor="middle" x="6751" y="-99.8" font-family="Times,serif" font-size="14.00">AngularFirestoreModule</text>
</g>
<!-- AngularFirestoreModule&#45;&gt;AppModule -->
<g id="edge44" class="edge">
<title>AngularFirestoreModule&#45;&gt;AppModule</title>
<path fill="none" stroke="black" d="M6751,-122.28C6751,-143.32 6751,-175 6751,-175 6751,-175 4258.77,-175 4258.77,-175"/>
<polygon fill="black" stroke="black" points="4258.77,-171.5 4248.77,-175 4258.77,-178.5 4258.77,-171.5"/>
</g>
<!-- AngularFireAnalyticsModule -->
<g id="node46" class="node">
<title>AngularFireAnalyticsModule</title>
<polygon fill="#8dd3c7" stroke="black" points="6655.62,-122 6652.62,-126 6631.62,-126 6628.62,-122 6474.38,-122 6474.38,-86 6655.62,-86 6655.62,-122"/>
<text text-anchor="middle" x="6565" y="-99.8" font-family="Times,serif" font-size="14.00">AngularFireAnalyticsModule</text>
</g>
<!-- AngularFireAnalyticsModule&#45;&gt;AppModule -->
<g id="edge45" class="edge">
<title>AngularFireAnalyticsModule&#45;&gt;AppModule</title>
<path fill="none" stroke="black" d="M6565,-122.03C6565,-142.77 6565,-174 6565,-174 6565,-174 4258.68,-174 4258.68,-174"/>
<polygon fill="black" stroke="black" points="4258.68,-170.5 4248.68,-174 4258.68,-177.5 4258.68,-170.5"/>
</g>
<!-- HttpClientModule -->
<g id="node47" class="node">
<title>HttpClientModule</title>
<polygon fill="#8dd3c7" stroke="black" points="6456.16,-122 6453.16,-126 6432.16,-126 6429.16,-122 6337.84,-122 6337.84,-86 6456.16,-86 6456.16,-122"/>
<text text-anchor="middle" x="6397" y="-99.8" font-family="Times,serif" font-size="14.00">HttpClientModule</text>
</g>
<!-- HttpClientModule&#45;&gt;AppModule -->
<g id="edge46" class="edge">
<title>HttpClientModule&#45;&gt;AppModule</title>
<path fill="none" stroke="black" d="M6397,-122.22C6397,-142.37 6397,-172 6397,-172 6397,-172 4258.79,-172 4258.79,-172"/>
<polygon fill="black" stroke="black" points="4258.79,-168.5 4248.79,-172 4258.79,-175.5 4258.79,-168.5"/>
</g>
<!-- FormsModule -->
<g id="node48" class="node">
<title>FormsModule</title>
<polygon fill="#8dd3c7" stroke="black" points="6319.83,-122 6316.83,-126 6295.83,-126 6292.83,-122 6224.17,-122 6224.17,-86 6319.83,-86 6319.83,-122"/>
<text text-anchor="middle" x="6272" y="-99.8" font-family="Times,serif" font-size="14.00">FormsModule</text>
</g>
<!-- FormsModule&#45;&gt;AppModule -->
<g id="edge47" class="edge">
<title>FormsModule&#45;&gt;AppModule</title>
<path fill="none" stroke="black" d="M6272,-122.31C6272,-142.15 6272,-171 6272,-171 6272,-171 4258.72,-171 4258.72,-171"/>
<polygon fill="black" stroke="black" points="4258.72,-167.5 4248.72,-171 4258.72,-174.5 4258.72,-167.5"/>
</g>
<!-- ReactiveFormsModule -->
<g id="node49" class="node">
<title>ReactiveFormsModule</title>
<polygon fill="#8dd3c7" stroke="black" points="6206.3,-122 6203.3,-126 6182.3,-126 6179.3,-122 6061.7,-122 6061.7,-86 6206.3,-86 6206.3,-122"/>
<text text-anchor="middle" x="6134" y="-99.8" font-family="Times,serif" font-size="14.00">ReactiveFormsModule</text>
</g>
<!-- ReactiveFormsModule&#45;&gt;AppModule -->
<g id="edge48" class="edge">
<title>ReactiveFormsModule&#45;&gt;AppModule</title>
<path fill="none" stroke="black" d="M6134,-122.11C6134,-141.34 6134,-169 6134,-169 6134,-169 4259.04,-169 4259.04,-169"/>
<polygon fill="black" stroke="black" points="4259.04,-165.5 4249.04,-169 4259.04,-172.5 4259.04,-165.5"/>
</g>
<!-- FlexLayoutModule -->
<g id="node50" class="node">
<title>FlexLayoutModule</title>
<polygon fill="#8dd3c7" stroke="black" points="6044.1,-122 6041.1,-126 6020.1,-126 6017.1,-122 5919.9,-122 5919.9,-86 6044.1,-86 6044.1,-122"/>
<text text-anchor="middle" x="5982" y="-99.8" font-family="Times,serif" font-size="14.00">FlexLayoutModule</text>
</g>
<!-- FlexLayoutModule&#45;&gt;AppModule -->
<g id="edge49" class="edge">
<title>FlexLayoutModule&#45;&gt;AppModule</title>
<path fill="none" stroke="black" d="M5982,-122.17C5982,-141.09 5982,-168 5982,-168 5982,-168 4258.69,-168 4258.69,-168"/>
<polygon fill="black" stroke="black" points="4258.69,-164.5 4248.69,-168 4258.69,-171.5 4258.69,-164.5"/>
</g>
<!-- ScreenTrackingService -->
<g id="node52" class="node">
<title>ScreenTrackingService</title>
<ellipse fill="#fdb462" stroke="black" cx="8175" cy="-104" rx="101.24" ry="18"/>
<text text-anchor="middle" x="8175" y="-99.8" font-family="Times,serif" font-size="14.00">ScreenTrackingService</text>
</g>
<!-- ScreenTrackingService&#45;&gt;AppModule -->
<g id="edge51" class="edge">
<title>ScreenTrackingService&#45;&gt;AppModule</title>
<path fill="none" stroke="black" d="M8175,-122.2C8175,-146.36 8175,-186 8175,-186 8175,-186 4258.88,-186 4258.88,-186"/>
<polygon fill="black" stroke="black" points="4258.88,-182.5 4248.88,-186 4258.88,-189.5 4258.88,-182.5"/>
</g>
<!-- UserTrackingService -->
<g id="node53" class="node">
<title>UserTrackingService</title>
<ellipse fill="#fdb462" stroke="black" cx="7963" cy="-104" rx="93.15" ry="18"/>
<text text-anchor="middle" x="7963" y="-99.8" font-family="Times,serif" font-size="14.00">UserTrackingService</text>
</g>
<!-- UserTrackingService&#45;&gt;AppModule -->
<g id="edge52" class="edge">
<title>UserTrackingService&#45;&gt;AppModule</title>
<path fill="none" stroke="black" d="M7963,-122.38C7963,-146.28 7963,-185 7963,-185 7963,-185 4258.86,-185 4258.86,-185"/>
<polygon fill="black" stroke="black" points="4258.86,-181.5 4248.86,-185 4258.86,-188.5 4258.86,-181.5"/>
</g>
</g>
</svg>
