<?xml version="1.0" encoding="UTF-8" standalone="no"?>
<!DOCTYPE svg PUBLIC "-//W3C//DTD SVG 1.1//EN"
 "http://www.w3.org/Graphics/SVG/1.1/DTD/svg11.dtd">
<!-- Generated by graphviz version 2.47.0 (20210316.0004)
 -->
<!-- Title: dependencies Pages: 1 -->
<svg width="8284pt" height="284pt"
 viewBox="0.00 0.00 8284.00 284.00" xmlns="http://www.w3.org/2000/svg" xmlns:xlink="http://www.w3.org/1999/xlink">
<g id="graph0" class="graph" transform="scale(1 1) rotate(0) translate(4 280)">
<title>dependencies</title>
<polygon fill="white" stroke="transparent" points="-4,4 -4,-280 8280,-280 8280,4 -4,4"/>
<text text-anchor="start" x="4117.01" y="-42.4" font-family="sans-serif" font-weight="bold" font-size="14.00">Legend</text>
<polygon fill="#ffffb3" stroke="transparent" points="3904,-10 3904,-30 3924,-30 3924,-10 3904,-10"/>
<text text-anchor="start" x="3927.63" y="-15.4" font-family="sans-serif" font-size="14.00"> &#160;Declarations</text>
<polygon fill="#8dd3c7" stroke="transparent" points="4017,-10 4017,-30 4037,-30 4037,-10 4017,-10"/>
<text text-anchor="start" x="4040.73" y="-15.4" font-family="sans-serif" font-size="14.00"> &#160;Module</text>
<polygon fill="#80b1d3" stroke="transparent" points="4103,-10 4103,-30 4123,-30 4123,-10 4103,-10"/>
<text text-anchor="start" x="4126.78" y="-15.4" font-family="sans-serif" font-size="14.00"> &#160;Bootstrap</text>
<polygon fill="#fdb462" stroke="transparent" points="4200,-10 4200,-30 4220,-30 4220,-10 4200,-10"/>
<text text-anchor="start" x="4223.67" y="-15.4" font-family="sans-serif" font-size="14.00"> &#160;Providers</text>
<polygon fill="#fb8072" stroke="transparent" points="4296,-10 4296,-30 4316,-30 4316,-10 4296,-10"/>
<text text-anchor="start" x="4319.73" y="-15.4" font-family="sans-serif" font-size="14.00"> &#160;Exports</text>
<g id="clust1" class="cluster">
<title>cluster_AppModule</title>
<polygon fill="none" stroke="black" stroke-dasharray="1,5" points="8,-70 8,-268 8268,-268 8268,-70 8,-70"/>
</g>
<g id="clust43" class="cluster">
<title>cluster_AppModule_providers</title>
<polygon fill="none" stroke="black" points="7838,-78 7838,-130 8260,-130 8260,-78 7838,-78"/>
</g>
<g id="clust40" class="cluster">
<title>cluster_AppModule_imports</title>
<polygon fill="none" stroke="black" points="5888,-78 5888,-130 7830,-130 7830,-78 5888,-78"/>
</g>
<g id="clust2" class="cluster">
<title>cluster_AppModule_declarations</title>
<polygon fill="none" stroke="black" points="16,-78 16,-130 5880,-130 5880,-78 16,-78"/>
</g>
<g id="clust42" class="cluster">
<title>cluster_AppModule_bootstrap</title>
<polygon fill="none" stroke="black" points="4128,-208 4128,-260 4252,-260 4252,-208 4128,-208"/>
</g>
<!-- AppComponent -->
<g id="node1" class="node">
<title>AppComponent</title>
<polygon fill="#ffffb3" stroke="black" points="5871.94,-122 5766.06,-122 5766.06,-86 5871.94,-86 5871.94,-122"/>
<text text-anchor="middle" x="5819" y="-99.8" font-family="Times,serif" font-size="14.00">AppComponent</text>
</g>
<!-- AppModule -->
<g id="node38" class="node">
<title>AppModule</title>
<polygon fill="#8dd3c7" stroke="black" points="4231.66,-187 4228.66,-191 4207.66,-191 4204.66,-187 4148.34,-187 4148.34,-151 4231.66,-151 4231.66,-187"/>
<text text-anchor="middle" x="4190" y="-164.8" font-family="Times,serif" font-size="14.00">AppModule</text>
</g>
<!-- AppComponent&#45;&gt;AppModule -->
<g id="edge1" class="edge">
<title>AppComponent&#45;&gt;AppModule</title>
<path fill="none" stroke="black" d="M5819,-122.22C5819,-140.83 5819,-167 5819,-167 5819,-167 4241.9,-167 4241.9,-167"/>
<polygon fill="black" stroke="black" points="4241.9,-163.5 4231.9,-167 4241.9,-170.5 4241.9,-163.5"/>
</g>
<!-- DashboardComponent -->
<g id="node2" class="node">
<title>DashboardComponent</title>
<polygon fill="#ffffb3" stroke="black" points="5747.97,-122 5606.03,-122 5606.03,-86 5747.97,-86 5747.97,-122"/>
<text text-anchor="middle" x="5677" y="-99.8" font-family="Times,serif" font-size="14.00">DashboardComponent</text>
</g>
<!-- DashboardComponent&#45;&gt;AppModule -->
<g id="edge2" class="edge">
<title>DashboardComponent&#45;&gt;AppModule</title>
<path fill="none" stroke="black" d="M5677,-122.3C5677,-140.27 5677,-165 5677,-165 5677,-165 4241.71,-165 4241.71,-165"/>
<polygon fill="black" stroke="black" points="4241.71,-161.5 4231.71,-165 4241.71,-168.5 4241.71,-161.5"/>
</g>
<!-- NavbarComponent -->
<g id="node3" class="node">
<title>NavbarComponent</title>
<polygon fill="#ffffb3" stroke="black" points="5588.03,-122 5465.97,-122 5465.97,-86 5588.03,-86 5588.03,-122"/>
<text text-anchor="middle" x="5527" y="-99.8" font-family="Times,serif" font-size="14.00">NavbarComponent</text>
</g>
<!-- NavbarComponent&#45;&gt;AppModule -->
<g id="edge3" class="edge">
<title>NavbarComponent&#45;&gt;AppModule</title>
<path fill="none" stroke="black" d="M5527,-122C5527,-139.68 5527,-164 5527,-164 5527,-164 4241.85,-164 4241.85,-164"/>
<polygon fill="black" stroke="black" points="4241.85,-160.5 4231.85,-164 4241.85,-167.5 4241.85,-160.5"/>
</g>
<!-- SearchInputComponent -->
<g id="node4" class="node">
<title>SearchInputComponent</title>
<polygon fill="#ffffb3" stroke="black" points="5447.47,-122 5298.53,-122 5298.53,-86 5447.47,-86 5447.47,-122"/>
<text text-anchor="middle" x="5373" y="-99.8" font-family="Times,serif" font-size="14.00">SearchInputComponent</text>
</g>
<!-- SearchInputComponent&#45;&gt;AppModule -->
<g id="edge4" class="edge">
<title>SearchInputComponent&#45;&gt;AppModule</title>
<path fill="none" stroke="black" d="M5373,-122.02C5373,-139.37 5373,-163 5373,-163 5373,-163 4241.76,-163 4241.76,-163"/>
<polygon fill="black" stroke="black" points="4241.76,-159.5 4231.76,-163 4241.76,-166.5 4241.76,-159.5"/>
</g>
<!-- MenuComponent -->
<g id="node5" class="node">
<title>MenuComponent</title>
<polygon fill="#ffffb3" stroke="black" points="5280.99,-122 5167.01,-122 5167.01,-86 5280.99,-86 5280.99,-122"/>
<text text-anchor="middle" x="5224" y="-99.8" font-family="Times,serif" font-size="14.00">MenuComponent</text>
</g>
<!-- MenuComponent&#45;&gt;AppModule -->
<g id="edge5" class="edge">
<title>MenuComponent&#45;&gt;AppModule</title>
<path fill="none" stroke="black" d="M5224,-122.04C5224,-138.73 5224,-161 5224,-161 5224,-161 4241.81,-161 4241.81,-161"/>
<polygon fill="black" stroke="black" points="4241.81,-157.5 4231.81,-161 4241.81,-164.5 4241.81,-157.5"/>
</g>
<!-- LoginComponent -->
<g id="node6" class="node">
<title>LoginComponent</title>
<polygon fill="#ffffb3" stroke="black" points="5149.28,-122 5034.72,-122 5034.72,-86 5149.28,-86 5149.28,-122"/>
<text text-anchor="middle" x="5092" y="-99.8" font-family="Times,serif" font-size="14.00">LoginComponent</text>
</g>
<!-- LoginComponent&#45;&gt;AppModule -->
<g id="edge6" class="edge">
<title>LoginComponent&#45;&gt;AppModule</title>
<path fill="none" stroke="black" d="M5092,-122.03C5092,-138.4 5092,-160 5092,-160 5092,-160 4241.7,-160 4241.7,-160"/>
<polygon fill="black" stroke="black" points="4241.7,-156.5 4231.7,-160 4241.7,-163.5 4241.7,-156.5"/>
</g>
<!-- SettingsComponent -->
<g id="node7" class="node">
<title>SettingsComponent</title>
<polygon fill="#ffffb3" stroke="black" points="5016.45,-122 4889.55,-122 4889.55,-86 5016.45,-86 5016.45,-122"/>
<text text-anchor="middle" x="4953" y="-99.8" font-family="Times,serif" font-size="14.00">SettingsComponent</text>
</g>
<!-- SettingsComponent&#45;&gt;AppModule -->
<g id="edge7" class="edge">
<title>SettingsComponent&#45;&gt;AppModule</title>
<path fill="none" stroke="black" d="M4953,-122.28C4953,-137.95 4953,-158 4953,-158 4953,-158 4241.84,-158 4241.84,-158"/>
<polygon fill="black" stroke="black" points="4241.84,-154.5 4231.84,-158 4241.84,-161.5 4241.84,-154.5"/>
</g>
<!-- AdminComponent -->
<g id="node8" class="node">
<title>AdminComponent</title>
<polygon fill="#ffffb3" stroke="black" points="4872.22,-122 4751.78,-122 4751.78,-86 4872.22,-86 4872.22,-122"/>
<text text-anchor="middle" x="4812" y="-99.8" font-family="Times,serif" font-size="14.00">AdminComponent</text>
</g>
<!-- AdminComponent&#45;&gt;AppModule -->
<g id="edge8" class="edge">
<title>AdminComponent&#45;&gt;AppModule</title>
<path fill="none" stroke="black" d="M4812,-122.24C4812,-137.57 4812,-157 4812,-157 4812,-157 4241.78,-157 4241.78,-157"/>
<polygon fill="black" stroke="black" points="4241.78,-153.5 4231.78,-157 4241.78,-160.5 4241.78,-153.5"/>
</g>
<!-- CoursesComponent -->
<g id="node9" class="node">
<title>CoursesComponent</title>
<polygon fill="#ffffb3" stroke="black" points="4734.43,-122 4607.57,-122 4607.57,-86 4734.43,-86 4734.43,-122"/>
<text text-anchor="middle" x="4671" y="-99.8" font-family="Times,serif" font-size="14.00">CoursesComponent</text>
</g>
<!-- CoursesComponent&#45;&gt;AppModule -->
<g id="edge9" class="edge">
<title>CoursesComponent&#45;&gt;AppModule</title>
<path fill="none" stroke="black" d="M4671,-122.19C4671,-137.18 4671,-156 4671,-156 4671,-156 4241.84,-156 4241.84,-156"/>
<polygon fill="black" stroke="black" points="4241.84,-152.5 4231.84,-156 4241.84,-159.5 4241.84,-152.5"/>
</g>
<!-- ReviewsComponent -->
<g id="node10" class="node">
<title>ReviewsComponent</title>
<polygon fill="#ffffb3" stroke="black" points="4589.54,-122 4460.46,-122 4460.46,-86 4589.54,-86 4589.54,-122"/>
<text text-anchor="middle" x="4525" y="-99.8" font-family="Times,serif" font-size="14.00">ReviewsComponent</text>
</g>
<!-- ReviewsComponent&#45;&gt;AppModule -->
<g id="edge10" class="edge">
<title>ReviewsComponent&#45;&gt;AppModule</title>
<path fill="none" stroke="black" d="M4525,-122.05C4525,-136.37 4525,-154 4525,-154 4525,-154 4241.75,-154 4241.75,-154"/>
<polygon fill="black" stroke="black" points="4241.75,-150.5 4231.75,-154 4241.75,-157.5 4241.75,-150.5"/>
</g>
<!-- CourseDetailComponent -->
<g id="node11" class="node">
<title>CourseDetailComponent</title>
<polygon fill="#ffffb3" stroke="black" points="4442.7,-122 4287.3,-122 4287.3,-86 4442.7,-86 4442.7,-122"/>
<text text-anchor="middle" x="4365" y="-99.8" font-family="Times,serif" font-size="14.00">CourseDetailComponent</text>
</g>
<!-- CourseDetailComponent&#45;&gt;AppModule -->
<g id="edge11" class="edge">
<title>CourseDetailComponent&#45;&gt;AppModule</title>
<path fill="none" stroke="black" d="M4365,-122.25C4365,-136.18 4365,-153 4365,-153 4365,-153 4241.92,-153 4241.92,-153"/>
<polygon fill="black" stroke="black" points="4241.92,-149.5 4231.92,-153 4241.92,-156.5 4241.92,-149.5"/>
</g>
<!-- ReviewDetailComponent -->
<g id="node12" class="node">
<title>ReviewDetailComponent</title>
<polygon fill="#ffffb3" stroke="black" points="4269.3,-122 4110.7,-122 4110.7,-86 4269.3,-86 4269.3,-122"/>
<text text-anchor="middle" x="4190" y="-99.8" font-family="Times,serif" font-size="14.00">ReviewDetailComponent</text>
</g>
<!-- ReviewDetailComponent&#45;&gt;AppModule -->
<g id="edge12" class="edge">
<title>ReviewDetailComponent&#45;&gt;AppModule</title>
<path fill="none" stroke="black" d="M4190,-122.11C4190,-122.11 4190,-140.99 4190,-140.99"/>
<polygon fill="black" stroke="black" points="4186.5,-140.99 4190,-150.99 4193.5,-140.99 4186.5,-140.99"/>
</g>
<!-- DialogOnDelete -->
<g id="node13" class="node">
<title>DialogOnDelete</title>
<polygon fill="#ffffb3" stroke="black" points="4092.74,-122 3985.26,-122 3985.26,-86 4092.74,-86 4092.74,-122"/>
<text text-anchor="middle" x="4039" y="-99.8" font-family="Times,serif" font-size="14.00">DialogOnDelete</text>
</g>
<!-- DialogOnDelete&#45;&gt;AppModule -->
<g id="edge13" class="edge">
<title>DialogOnDelete&#45;&gt;AppModule</title>
<path fill="none" stroke="black" d="M4039,-122.25C4039,-136.18 4039,-153 4039,-153 4039,-153 4138.34,-153 4138.34,-153"/>
<polygon fill="black" stroke="black" points="4138.34,-156.5 4148.34,-153 4138.34,-149.5 4138.34,-156.5"/>
</g>
<!-- RegisterComponent -->
<g id="node14" class="node">
<title>RegisterComponent</title>
<polygon fill="#ffffb3" stroke="black" points="3966.98,-122 3839.02,-122 3839.02,-86 3966.98,-86 3966.98,-122"/>
<text text-anchor="middle" x="3903" y="-99.8" font-family="Times,serif" font-size="14.00">RegisterComponent</text>
</g>
<!-- RegisterComponent&#45;&gt;AppModule -->
<g id="edge14" class="edge">
<title>RegisterComponent&#45;&gt;AppModule</title>
<path fill="none" stroke="black" d="M3903,-122.05C3903,-136.37 3903,-154 3903,-154 3903,-154 4138.27,-154 4138.27,-154"/>
<polygon fill="black" stroke="black" points="4138.27,-157.5 4148.27,-154 4138.27,-150.5 4138.27,-157.5"/>
</g>
<!-- ForgotPasswordComponent -->
<g id="node15" class="node">
<title>ForgotPasswordComponent</title>
<polygon fill="#ffffb3" stroke="black" points="3821.32,-122 3648.68,-122 3648.68,-86 3821.32,-86 3821.32,-122"/>
<text text-anchor="middle" x="3735" y="-99.8" font-family="Times,serif" font-size="14.00">ForgotPasswordComponent</text>
</g>
<!-- ForgotPasswordComponent&#45;&gt;AppModule -->
<g id="edge15" class="edge">
<title>ForgotPasswordComponent&#45;&gt;AppModule</title>
<path fill="none" stroke="black" d="M3735,-122.19C3735,-137.18 3735,-156 3735,-156 3735,-156 4138.01,-156 4138.01,-156"/>
<polygon fill="black" stroke="black" points="4138.01,-159.5 4148.01,-156 4138.01,-152.5 4138.01,-159.5"/>
</g>
<!-- VerifyEmailComponent -->
<g id="node16" class="node">
<title>VerifyEmailComponent</title>
<polygon fill="#ffffb3" stroke="black" points="3630.8,-122 3479.2,-122 3479.2,-86 3630.8,-86 3630.8,-122"/>
<text text-anchor="middle" x="3555" y="-99.8" font-family="Times,serif" font-size="14.00">VerifyEmailComponent</text>
</g>
<!-- VerifyEmailComponent&#45;&gt;AppModule -->
<g id="edge16" class="edge">
<title>VerifyEmailComponent&#45;&gt;AppModule</title>
<path fill="none" stroke="black" d="M3555,-122.24C3555,-137.57 3555,-157 3555,-157 3555,-157 4138.34,-157 4138.34,-157"/>
<polygon fill="black" stroke="black" points="4138.34,-160.5 4148.34,-157 4138.34,-153.5 4138.34,-160.5"/>
</g>
<!-- CourseListComponent -->
<g id="node17" class="node">
<title>CourseListComponent</title>
<polygon fill="#ffffb3" stroke="black" points="3461.27,-122 3318.73,-122 3318.73,-86 3461.27,-86 3461.27,-122"/>
<text text-anchor="middle" x="3390" y="-99.8" font-family="Times,serif" font-size="14.00">CourseListComponent</text>
</g>
<!-- CourseListComponent&#45;&gt;AppModule -->
<g id="edge17" class="edge">
<title>CourseListComponent&#45;&gt;AppModule</title>
<path fill="none" stroke="black" d="M3390,-122.28C3390,-137.95 3390,-158 3390,-158 3390,-158 4138.11,-158 4138.11,-158"/>
<polygon fill="black" stroke="black" points="4138.11,-161.5 4148.11,-158 4138.11,-154.5 4138.11,-161.5"/>
</g>
<!-- CourseCardComponent -->
<g id="node18" class="node">
<title>CourseCardComponent</title>
<polygon fill="#ffffb3" stroke="black" points="3301.2,-122 3152.8,-122 3152.8,-86 3301.2,-86 3301.2,-122"/>
<text text-anchor="middle" x="3227" y="-99.8" font-family="Times,serif" font-size="14.00">CourseCardComponent</text>
</g>
<!-- CourseCardComponent&#45;&gt;AppModule -->
<g id="edge18" class="edge">
<title>CourseCardComponent&#45;&gt;AppModule</title>
<path fill="none" stroke="black" d="M3227,-122.03C3227,-138.4 3227,-160 3227,-160 3227,-160 4138.31,-160 4138.31,-160"/>
<polygon fill="black" stroke="black" points="4138.31,-163.5 4148.31,-160 4138.31,-156.5 4138.31,-163.5"/>
</g>
<!-- CourseGridComponent -->
<g id="node19" class="node">
<title>CourseGridComponent</title>
<polygon fill="#ffffb3" stroke="black" points="3135.15,-122 2988.85,-122 2988.85,-86 3135.15,-86 3135.15,-122"/>
<text text-anchor="middle" x="3062" y="-99.8" font-family="Times,serif" font-size="14.00">CourseGridComponent</text>
</g>
<!-- CourseGridComponent&#45;&gt;AppModule -->
<g id="edge19" class="edge">
<title>CourseGridComponent&#45;&gt;AppModule</title>
<path fill="none" stroke="black" d="M3062,-122.04C3062,-138.73 3062,-161 3062,-161 3062,-161 4138.18,-161 4138.18,-161"/>
<polygon fill="black" stroke="black" points="4138.18,-164.5 4148.18,-161 4138.18,-157.5 4138.18,-164.5"/>
</g>
<!-- CourseGridCardComponent -->
<g id="node20" class="node">
<title>CourseGridCardComponent</title>
<polygon fill="#ffffb3" stroke="black" points="2970.86,-122 2797.14,-122 2797.14,-86 2970.86,-86 2970.86,-122"/>
<text text-anchor="middle" x="2884" y="-99.8" font-family="Times,serif" font-size="14.00">CourseGridCardComponent</text>
</g>
<!-- CourseGridCardComponent&#45;&gt;AppModule -->
<g id="edge20" class="edge">
<title>CourseGridCardComponent&#45;&gt;AppModule</title>
<path fill="none" stroke="black" d="M2884,-122.02C2884,-139.37 2884,-163 2884,-163 2884,-163 4138.03,-163 4138.03,-163"/>
<polygon fill="black" stroke="black" points="4138.03,-166.5 4148.03,-163 4138.03,-159.5 4138.03,-166.5"/>
</g>
<!-- LogoutComponent -->
<g id="node21" class="node">
<title>LogoutComponent</title>
<polygon fill="#ffffb3" stroke="black" points="2778.78,-122 2657.22,-122 2657.22,-86 2778.78,-86 2778.78,-122"/>
<text text-anchor="middle" x="2718" y="-99.8" font-family="Times,serif" font-size="14.00">LogoutComponent</text>
</g>
<!-- LogoutComponent&#45;&gt;AppModule -->
<g id="edge21" class="edge">
<title>LogoutComponent&#45;&gt;AppModule</title>
<path fill="none" stroke="black" d="M2718,-122C2718,-139.68 2718,-164 2718,-164 2718,-164 4138.32,-164 4138.32,-164"/>
<polygon fill="black" stroke="black" points="4138.32,-167.5 4148.32,-164 4138.32,-160.5 4138.32,-167.5"/>
</g>
<!-- CreateReviewComponent -->
<g id="node22" class="node">
<title>CreateReviewComponent</title>
<polygon fill="#ffffb3" stroke="black" points="2639.13,-122 2478.87,-122 2478.87,-86 2639.13,-86 2639.13,-122"/>
<text text-anchor="middle" x="2559" y="-99.8" font-family="Times,serif" font-size="14.00">CreateReviewComponent</text>
</g>
<!-- CreateReviewComponent&#45;&gt;AppModule -->
<g id="edge22" class="edge">
<title>CreateReviewComponent&#45;&gt;AppModule</title>
<path fill="none" stroke="black" d="M2559,-122.3C2559,-140.27 2559,-165 2559,-165 2559,-165 4138.04,-165 4138.04,-165"/>
<polygon fill="black" stroke="black" points="4138.04,-168.5 4148.04,-165 4138.04,-161.5 4138.04,-168.5"/>
</g>
<!-- DialogReviewSubmission -->
<g id="node23" class="node">
<title>DialogReviewSubmission</title>
<polygon fill="#ffffb3" stroke="black" points="2461.21,-122 2298.79,-122 2298.79,-86 2461.21,-86 2461.21,-122"/>
<text text-anchor="middle" x="2380" y="-99.8" font-family="Times,serif" font-size="14.00">DialogReviewSubmission</text>
</g>
<!-- DialogReviewSubmission&#45;&gt;AppModule -->
<g id="edge23" class="edge">
<title>DialogReviewSubmission&#45;&gt;AppModule</title>
<path fill="none" stroke="black" d="M2380,-122.22C2380,-140.83 2380,-167 2380,-167 2380,-167 4137.92,-167 4137.92,-167"/>
<polygon fill="black" stroke="black" points="4137.92,-170.5 4147.92,-167 4137.92,-163.5 4137.92,-170.5"/>
</g>
<!-- DialogNotLoggedIn -->
<g id="node24" class="node">
<title>DialogNotLoggedIn</title>
<polygon fill="#ffffb3" stroke="black" points="2280.53,-122 2151.47,-122 2151.47,-86 2280.53,-86 2280.53,-122"/>
<text text-anchor="middle" x="2216" y="-99.8" font-family="Times,serif" font-size="14.00">DialogNotLoggedIn</text>
</g>
<!-- DialogNotLoggedIn&#45;&gt;AppModule -->
<g id="edge24" class="edge">
<title>DialogNotLoggedIn&#45;&gt;AppModule</title>
<path fill="none" stroke="black" d="M2216,-122.17C2216,-141.09 2216,-168 2216,-168 2216,-168 4138.31,-168 4138.31,-168"/>
<polygon fill="black" stroke="black" points="4138.31,-171.5 4148.31,-168 4138.31,-164.5 4138.31,-171.5"/>
</g>
<!-- DialogNotVerified -->
<g id="node25" class="node">
<title>DialogNotVerified</title>
<polygon fill="#ffffb3" stroke="black" points="2132.74,-122 2011.26,-122 2011.26,-86 2132.74,-86 2132.74,-122"/>
<text text-anchor="middle" x="2072" y="-99.8" font-family="Times,serif" font-size="14.00">DialogNotVerified</text>
</g>
<!-- DialogNotVerified&#45;&gt;AppModule -->
<g id="edge25" class="edge">
<title>DialogNotVerified&#45;&gt;AppModule</title>
<path fill="none" stroke="black" d="M2072,-122.11C2072,-141.34 2072,-169 2072,-169 2072,-169 4138.17,-169 4138.17,-169"/>
<polygon fill="black" stroke="black" points="4138.17,-172.5 4148.17,-169 4138.17,-165.5 4138.17,-172.5"/>
</g>
<!-- DialogSendFeedback -->
<g id="node26" class="node">
<title>DialogSendFeedback</title>
<polygon fill="#ffffb3" stroke="black" points="1992.74,-122 1857.26,-122 1857.26,-86 1992.74,-86 1992.74,-122"/>
<text text-anchor="middle" x="1925" y="-99.8" font-family="Times,serif" font-size="14.00">DialogSendFeedback</text>
</g>
<!-- DialogSendFeedback&#45;&gt;AppModule -->
<g id="edge26" class="edge">
<title>DialogSendFeedback&#45;&gt;AppModule</title>
<path fill="none" stroke="black" d="M1925,-122.31C1925,-142.15 1925,-171 1925,-171 1925,-171 4138.26,-171 4138.26,-171"/>
<polygon fill="black" stroke="black" points="4138.26,-174.5 4148.26,-171 4138.26,-167.5 4138.26,-174.5"/>
</g>
<!-- EditComponent -->
<g id="node27" class="node">
<title>EditComponent</title>
<polygon fill="#ffffb3" stroke="black" points="1839.17,-122 1734.83,-122 1734.83,-86 1839.17,-86 1839.17,-122"/>
<text text-anchor="middle" x="1787" y="-99.8" font-family="Times,serif" font-size="14.00">EditComponent</text>
</g>
<!-- EditComponent&#45;&gt;AppModule -->
<g id="edge27" class="edge">
<title>EditComponent&#45;&gt;AppModule</title>
<path fill="none" stroke="black" d="M1787,-122.22C1787,-142.37 1787,-172 1787,-172 1787,-172 4138.29,-172 4138.29,-172"/>
<polygon fill="black" stroke="black" points="4138.29,-175.5 4148.29,-172 4138.29,-168.5 4138.29,-175.5"/>
</g>
<!-- ViewUserReviewsComponent -->
<g id="node28" class="node">
<title>ViewUserReviewsComponent</title>
<polygon fill="#ffffb3" stroke="black" points="1717.29,-122 1530.71,-122 1530.71,-86 1717.29,-86 1717.29,-122"/>
<text text-anchor="middle" x="1624" y="-99.8" font-family="Times,serif" font-size="14.00">ViewUserReviewsComponent</text>
</g>
<!-- ViewUserReviewsComponent&#45;&gt;AppModule -->
<g id="edge28" class="edge">
<title>ViewUserReviewsComponent&#45;&gt;AppModule</title>
<path fill="none" stroke="black" d="M1624,-122.03C1624,-142.77 1624,-174 1624,-174 1624,-174 4138.13,-174 4138.13,-174"/>
<polygon fill="black" stroke="black" points="4138.13,-177.5 4148.13,-174 4138.13,-170.5 4138.13,-177.5"/>
</g>
<!-- EditCourseMetadataComponent -->
<g id="node29" class="node">
<title>EditCourseMetadataComponent</title>
<polygon fill="#ffffb3" stroke="black" points="1513.41,-122 1316.59,-122 1316.59,-86 1513.41,-86 1513.41,-122"/>
<text text-anchor="middle" x="1415" y="-99.8" font-family="Times,serif" font-size="14.00">EditCourseMetadataComponent</text>
</g>
<!-- EditCourseMetadataComponent&#45;&gt;AppModule -->
<g id="edge29" class="edge">
<title>EditCourseMetadataComponent&#45;&gt;AppModule</title>
<path fill="none" stroke="black" d="M1415,-122.28C1415,-143.32 1415,-175 1415,-175 1415,-175 4138.07,-175 4138.07,-175"/>
<polygon fill="black" stroke="black" points="4138.07,-178.5 4148.07,-175 4138.07,-171.5 4138.07,-178.5"/>
</g>
<!-- SidenavComponent -->
<g id="node30" class="node">
<title>SidenavComponent</title>
<polygon fill="#ffffb3" stroke="black" points="1299.44,-122 1172.56,-122 1172.56,-86 1299.44,-86 1299.44,-122"/>
<text text-anchor="middle" x="1236" y="-99.8" font-family="Times,serif" font-size="14.00">SidenavComponent</text>
</g>
<!-- SidenavComponent&#45;&gt;AppModule -->
<g id="edge30" class="edge">
<title>SidenavComponent&#45;&gt;AppModule</title>
<path fill="none" stroke="black" d="M1236,-122.17C1236,-143.5 1236,-176 1236,-176 1236,-176 4138.24,-176 4138.24,-176"/>
<polygon fill="black" stroke="black" points="4138.24,-179.5 4148.24,-176 4138.24,-172.5 4138.24,-179.5"/>
</g>
<!-- FooterComponent -->
<g id="node31" class="node">
<title>FooterComponent</title>
<polygon fill="#ffffb3" stroke="black" points="1154.88,-122 1037.12,-122 1037.12,-86 1154.88,-86 1154.88,-122"/>
<text text-anchor="middle" x="1096" y="-99.8" font-family="Times,serif" font-size="14.00">FooterComponent</text>
</g>
<!-- FooterComponent&#45;&gt;AppModule -->
<g id="edge31" class="edge">
<title>FooterComponent&#45;&gt;AppModule</title>
<path fill="none" stroke="black" d="M1096,-122.29C1096,-144.21 1096,-178 1096,-178 1096,-178 4138.31,-178 4138.31,-178"/>
<polygon fill="black" stroke="black" points="4138.31,-181.5 4148.31,-178 4138.31,-174.5 4138.31,-181.5"/>
</g>
<!-- SadPandaComponent -->
<g id="node32" class="node">
<title>SadPandaComponent</title>
<polygon fill="#ffffb3" stroke="black" points="1019.04,-122 882.96,-122 882.96,-86 1019.04,-86 1019.04,-122"/>
<text text-anchor="middle" x="951" y="-99.8" font-family="Times,serif" font-size="14.00">SadPandaComponent</text>
</g>
<!-- SadPandaComponent&#45;&gt;AppModule -->
<g id="edge32" class="edge">
<title>SadPandaComponent&#45;&gt;AppModule</title>
<path fill="none" stroke="black" d="M951,-122.16C951,-144.35 951,-179 951,-179 951,-179 4138.16,-179 4138.16,-179"/>
<polygon fill="black" stroke="black" points="4138.16,-182.5 4148.16,-179 4138.16,-175.5 4138.16,-182.5"/>
</g>
<!-- ThankyouComponent -->
<g id="node33" class="node">
<title>ThankyouComponent</title>
<polygon fill="#ffffb3" stroke="black" points="865.1,-122 726.9,-122 726.9,-86 865.1,-86 865.1,-122"/>
<text text-anchor="middle" x="796" y="-99.8" font-family="Times,serif" font-size="14.00">ThankyouComponent</text>
</g>
<!-- ThankyouComponent&#45;&gt;AppModule -->
<g id="edge33" class="edge">
<title>ThankyouComponent&#45;&gt;AppModule</title>
<path fill="none" stroke="black" d="M796,-122.25C796,-145.02 796,-181 796,-181 796,-181 4138.31,-181 4138.31,-181"/>
<polygon fill="black" stroke="black" points="4138.31,-184.5 4148.31,-181 4138.31,-177.5 4138.31,-184.5"/>
</g>
<!-- NothingHereComponent -->
<g id="node34" class="node">
<title>NothingHereComponent</title>
<polygon fill="#ffffb3" stroke="black" points="709.42,-122 554.58,-122 554.58,-86 709.42,-86 709.42,-122"/>
<text text-anchor="middle" x="632" y="-99.8" font-family="Times,serif" font-size="14.00">NothingHereComponent</text>
</g>
<!-- NothingHereComponent&#45;&gt;AppModule -->
<g id="edge34" class="edge">
<title>NothingHereComponent&#45;&gt;AppModule</title>
<path fill="none" stroke="black" d="M632,-122.09C632,-145.13 632,-182 632,-182 632,-182 4138.19,-182 4138.19,-182"/>
<polygon fill="black" stroke="black" points="4138.19,-185.5 4148.19,-182 4138.19,-178.5 4138.19,-185.5"/>
</g>
<!-- PandaPartyComponent -->
<g id="node35" class="node">
<title>PandaPartyComponent</title>
<polygon fill="#ffffb3" stroke="black" points="536.59,-122 391.41,-122 391.41,-86 536.59,-86 536.59,-122"/>
<text text-anchor="middle" x="464" y="-99.8" font-family="Times,serif" font-size="14.00">PandaPartyComponent</text>
</g>
<!-- PandaPartyComponent&#45;&gt;AppModule -->
<g id="edge35" class="edge">
<title>PandaPartyComponent&#45;&gt;AppModule</title>
<path fill="none" stroke="black" d="M464,-122.32C464,-145.66 464,-183 464,-183 464,-183 4138.16,-183 4138.16,-183"/>
<polygon fill="black" stroke="black" points="4138.16,-186.5 4148.16,-183 4138.16,-179.5 4138.16,-186.5"/>
</g>
<!-- StarRatingComponent -->
<g id="node36" class="node">
<title>StarRatingComponent</title>
<polygon fill="#ffffb3" stroke="black" points="373.71,-122 232.29,-122 232.29,-86 373.71,-86 373.71,-122"/>
<text text-anchor="middle" x="303" y="-99.8" font-family="Times,serif" font-size="14.00">StarRatingComponent</text>
</g>
<!-- StarRatingComponent&#45;&gt;AppModule -->
<g id="edge36" class="edge">
<title>StarRatingComponent&#45;&gt;AppModule</title>
<path fill="none" stroke="black" d="M303,-122.38C303,-146.28 303,-185 303,-185 303,-185 4138.33,-185 4138.33,-185"/>
<polygon fill="black" stroke="black" points="4138.33,-188.5 4148.33,-185 4138.33,-181.5 4138.33,-188.5"/>
</g>
<!-- ReviewHelpfulnessComponent -->
<g id="node37" class="node">
<title>ReviewHelpfulnessComponent</title>
<polygon fill="#ffffb3" stroke="black" points="214.46,-122 23.54,-122 23.54,-86 214.46,-86 214.46,-122"/>
<text text-anchor="middle" x="119" y="-99.8" font-family="Times,serif" font-size="14.00">ReviewHelpfulnessComponent</text>
</g>
<!-- ReviewHelpfulnessComponent&#45;&gt;AppModule -->
<g id="edge37" class="edge">
<title>ReviewHelpfulnessComponent&#45;&gt;AppModule</title>
<path fill="none" stroke="black" d="M119,-122.2C119,-146.36 119,-186 119,-186 119,-186 4138.05,-186 4138.05,-186"/>
<polygon fill="black" stroke="black" points="4138.05,-189.5 4148.05,-186 4138.05,-182.5 4138.05,-189.5"/>
</g>
<!-- AppComponent  -->
<g id="node51" class="node">
<title>AppComponent </title>
<polygon fill="#80b1d3" stroke="black" points="4244.44,-252 4135.56,-252 4135.56,-216 4244.44,-216 4244.44,-252"/>
<text text-anchor="middle" x="4190" y="-229.8" font-family="Times,serif" font-size="14.00">AppComponent </text>
</g>
<!-- AppModule&#45;&gt;AppComponent  -->
<g id="edge50" class="edge">
<title>AppModule&#45;&gt;AppComponent </title>
<path fill="none" stroke="black" stroke-dasharray="1,5" d="M4190,-187.11C4190,-187.11 4190,-205.99 4190,-205.99"/>
<polygon fill="black" stroke="black" points="4186.5,-205.99 4190,-215.99 4193.5,-205.99 4186.5,-205.99"/>
</g>
<!-- BrowserModule -->
<g id="node39" class="node">
<title>BrowserModule</title>
<polygon fill="#8dd3c7" stroke="black" points="7822.47,-122 7819.47,-126 7798.47,-126 7795.47,-122 7715.53,-122 7715.53,-86 7822.47,-86 7822.47,-122"/>
<text text-anchor="middle" x="7769" y="-99.8" font-family="Times,serif" font-size="14.00">BrowserModule</text>
</g>
<!-- BrowserModule&#45;&gt;AppModule -->
<g id="edge38" class="edge">
<title>BrowserModule&#45;&gt;AppModule</title>
<path fill="none" stroke="black" d="M7769,-122.32C7769,-145.66 7769,-183 7769,-183 7769,-183 4241.74,-183 4241.74,-183"/>
<polygon fill="black" stroke="black" points="4241.74,-179.5 4231.74,-183 4241.74,-186.5 4241.74,-179.5"/>
</g>
<!-- AppRoutingModule -->
<g id="node40" class="node">
<title>AppRoutingModule</title>
<polygon fill="#8dd3c7" stroke="black" points="7697.27,-122 7694.27,-126 7673.27,-126 7670.27,-122 7568.73,-122 7568.73,-86 7697.27,-86 7697.27,-122"/>
<text text-anchor="middle" x="7633" y="-99.8" font-family="Times,serif" font-size="14.00">AppRoutingModule</text>
</g>
<!-- AppRoutingModule&#45;&gt;AppModule -->
<g id="edge39" class="edge">
<title>AppRoutingModule&#45;&gt;AppModule</title>
<path fill="none" stroke="black" d="M7633,-122.09C7633,-145.13 7633,-182 7633,-182 7633,-182 4241.68,-182 4241.68,-182"/>
<polygon fill="black" stroke="black" points="4241.68,-178.5 4231.68,-182 4241.68,-185.5 4241.68,-178.5"/>
</g>
<!-- BrowserAnimationsModule -->
<g id="node41" class="node">
<title>BrowserAnimationsModule</title>
<polygon fill="#8dd3c7" stroke="black" points="7550.3,-122 7547.3,-126 7526.3,-126 7523.3,-122 7377.7,-122 7377.7,-86 7550.3,-86 7550.3,-122"/>
<text text-anchor="middle" x="7464" y="-99.8" font-family="Times,serif" font-size="14.00">BrowserAnimationsModule</text>
</g>
<!-- BrowserAnimationsModule&#45;&gt;AppModule -->
<g id="edge40" class="edge">
<title>BrowserAnimationsModule&#45;&gt;AppModule</title>
<path fill="none" stroke="black" d="M7464,-122.25C7464,-145.02 7464,-181 7464,-181 7464,-181 4241.69,-181 4241.69,-181"/>
<polygon fill="black" stroke="black" points="4241.69,-177.5 4231.69,-181 4241.69,-184.5 4241.69,-177.5"/>
</g>
<!-- MaterialModule -->
<g id="node42" class="node">
<title>MaterialModule</title>
<polygon fill="#8dd3c7" stroke="black" points="7359.47,-122 7356.47,-126 7335.47,-126 7332.47,-122 7252.53,-122 7252.53,-86 7359.47,-86 7359.47,-122"/>
<text text-anchor="middle" x="7306" y="-99.8" font-family="Times,serif" font-size="14.00">MaterialModule</text>
</g>
<!-- MaterialModule&#45;&gt;AppModule -->
<g id="edge41" class="edge">
<title>MaterialModule&#45;&gt;AppModule</title>
<path fill="none" stroke="black" d="M7306,-122.16C7306,-144.35 7306,-179 7306,-179 7306,-179 4241.69,-179 4241.69,-179"/>
<polygon fill="black" stroke="black" points="4241.69,-175.5 4231.69,-179 4241.69,-182.5 4241.69,-175.5"/>
</g>
<!-- AngularFireModule.initializeApp(args) -->
<g id="node43" class="node">
<title>AngularFireModule.initializeApp(args)</title>
<polygon fill="#8dd3c7" stroke="black" points="7234.71,-122 7231.71,-126 7210.71,-126 7207.71,-122 6997.29,-122 6997.29,-86 7234.71,-86 7234.71,-122"/>
<text text-anchor="middle" x="7116" y="-99.8" font-family="Times,serif" font-size="14.00">AngularFireModule.initializeApp(args)</text>
</g>
<!-- AngularFireModule.initializeApp(args)&#45;&gt;AppModule -->
<g id="edge42" class="edge">
<title>AngularFireModule.initializeApp(args)&#45;&gt;AppModule</title>
<path fill="none" stroke="black" d="M7116,-122.29C7116,-144.21 7116,-178 7116,-178 7116,-178 4241.93,-178 4241.93,-178"/>
<polygon fill="black" stroke="black" points="4241.93,-174.5 4231.93,-178 4241.92,-181.5 4241.93,-174.5"/>
</g>
<!-- AngularFireAuthModule -->
<g id="node44" class="node">
<title>AngularFireAuthModule</title>
<polygon fill="#8dd3c7" stroke="black" points="6978.97,-122 6975.97,-126 6954.97,-126 6951.97,-122 6823.03,-122 6823.03,-86 6978.97,-86 6978.97,-122"/>
<text text-anchor="middle" x="6901" y="-99.8" font-family="Times,serif" font-size="14.00">AngularFireAuthModule</text>
</g>
<!-- AngularFireAuthModule&#45;&gt;AppModule -->
<g id="edge43" class="edge">
<title>AngularFireAuthModule&#45;&gt;AppModule</title>
<path fill="none" stroke="black" d="M6901,-122.17C6901,-143.5 6901,-176 6901,-176 6901,-176 4241.77,-176 4241.77,-176"/>
<polygon fill="black" stroke="black" points="4241.77,-172.5 4231.77,-176 4241.77,-179.5 4241.77,-172.5"/>
</g>
<!-- AngularFirestoreModule -->
<g id="node45" class="node">
<title>AngularFirestoreModule</title>
<polygon fill="#8dd3c7" stroke="black" points="6804.68,-122 6801.68,-126 6780.68,-126 6777.68,-122 6649.32,-122 6649.32,-86 6804.68,-86 6804.68,-122"/>
<text text-anchor="middle" x="6727" y="-99.8" font-family="Times,serif" font-size="14.00">AngularFirestoreModule</text>
</g>
<!-- AngularFirestoreModule&#45;&gt;AppModule -->
<g id="edge44" class="edge">
<title>AngularFirestoreModule&#45;&gt;AppModule</title>
<path fill="none" stroke="black" d="M6727,-122.28C6727,-143.32 6727,-175 6727,-175 6727,-175 4241.92,-175 4241.92,-175"/>
<polygon fill="black" stroke="black" points="4241.92,-171.5 4231.92,-175 4241.92,-178.5 4241.92,-171.5"/>
</g>
<!-- AngularFireAnalyticsModule -->
<g id="node46" class="node">
<title>AngularFireAnalyticsModule</title>
<polygon fill="#8dd3c7" stroke="black" points="6631.62,-122 6628.62,-126 6607.62,-126 6604.62,-122 6450.38,-122 6450.38,-86 6631.62,-86 6631.62,-122"/>
<text text-anchor="middle" x="6541" y="-99.8" font-family="Times,serif" font-size="14.00">AngularFireAnalyticsModule</text>
</g>
<!-- AngularFireAnalyticsModule&#45;&gt;AppModule -->
<g id="edge45" class="edge">
<title>AngularFireAnalyticsModule&#45;&gt;AppModule</title>
<path fill="none" stroke="black" d="M6541,-122.03C6541,-142.77 6541,-174 6541,-174 6541,-174 4241.8,-174 4241.8,-174"/>
<polygon fill="black" stroke="black" points="4241.8,-170.5 4231.8,-174 4241.8,-177.5 4241.8,-170.5"/>
</g>
<!-- HttpClientModule -->
<g id="node47" class="node">
<title>HttpClientModule</title>
<polygon fill="#8dd3c7" stroke="black" points="6432.16,-122 6429.16,-126 6408.16,-126 6405.16,-122 6313.84,-122 6313.84,-86 6432.16,-86 6432.16,-122"/>
<text text-anchor="middle" x="6373" y="-99.8" font-family="Times,serif" font-size="14.00">HttpClientModule</text>
</g>
<!-- HttpClientModule&#45;&gt;AppModule -->
<g id="edge46" class="edge">
<title>HttpClientModule&#45;&gt;AppModule</title>
<path fill="none" stroke="black" d="M6373,-122.22C6373,-142.37 6373,-172 6373,-172 6373,-172 4241.66,-172 4241.66,-172"/>
<polygon fill="black" stroke="black" points="4241.66,-168.5 4231.66,-172 4241.66,-175.5 4241.66,-168.5"/>
</g>
<!-- FormsModule -->
<g id="node48" class="node">
<title>FormsModule</title>
<polygon fill="#8dd3c7" stroke="black" points="6295.83,-122 6292.83,-126 6271.83,-126 6268.83,-122 6200.17,-122 6200.17,-86 6295.83,-86 6295.83,-122"/>
<text text-anchor="middle" x="6248" y="-99.8" font-family="Times,serif" font-size="14.00">FormsModule</text>
</g>
<!-- FormsModule&#45;&gt;AppModule -->
<g id="edge47" class="edge">
<title>FormsModule&#45;&gt;AppModule</title>
<path fill="none" stroke="black" d="M6248,-122.31C6248,-142.15 6248,-171 6248,-171 6248,-171 4242.04,-171 4242.04,-171"/>
<polygon fill="black" stroke="black" points="4242.04,-167.5 4232.04,-171 4242.04,-174.5 4242.04,-167.5"/>
</g>
<!-- ReactiveFormsModule -->
<g id="node49" class="node">
<title>ReactiveFormsModule</title>
<polygon fill="#8dd3c7" stroke="black" points="6182.3,-122 6179.3,-126 6158.3,-126 6155.3,-122 6037.7,-122 6037.7,-86 6182.3,-86 6182.3,-122"/>
<text text-anchor="middle" x="6110" y="-99.8" font-family="Times,serif" font-size="14.00">ReactiveFormsModule</text>
</g>
<!-- ReactiveFormsModule&#45;&gt;AppModule -->
<g id="edge48" class="edge">
<title>ReactiveFormsModule&#45;&gt;AppModule</title>
<path fill="none" stroke="black" d="M6110,-122.11C6110,-141.34 6110,-169 6110,-169 6110,-169 4241.89,-169 4241.89,-169"/>
<polygon fill="black" stroke="black" points="4241.89,-165.5 4231.89,-169 4241.89,-172.5 4241.89,-165.5"/>
</g>
<!-- FlexLayoutModule -->
<g id="node50" class="node">
<title>FlexLayoutModule</title>
<polygon fill="#8dd3c7" stroke="black" points="6020.1,-122 6017.1,-126 5996.1,-126 5993.1,-122 5895.9,-122 5895.9,-86 6020.1,-86 6020.1,-122"/>
<text text-anchor="middle" x="5958" y="-99.8" font-family="Times,serif" font-size="14.00">FlexLayoutModule</text>
</g>
<!-- FlexLayoutModule&#45;&gt;AppModule -->
<g id="edge49" class="edge">
<title>FlexLayoutModule&#45;&gt;AppModule</title>
<path fill="none" stroke="black" d="M5958,-122.17C5958,-141.09 5958,-168 5958,-168 5958,-168 4241.96,-168 4241.96,-168"/>
<polygon fill="black" stroke="black" points="4241.96,-164.5 4231.96,-168 4241.96,-171.5 4241.96,-164.5"/>
</g>
<!-- ScreenTrackingService -->
<g id="node52" class="node">
<title>ScreenTrackingService</title>
<ellipse fill="#fdb462" stroke="black" cx="8151" cy="-104" rx="101.24" ry="18"/>
<text text-anchor="middle" x="8151" y="-99.8" font-family="Times,serif" font-size="14.00">ScreenTrackingService</text>
</g>
<!-- ScreenTrackingService&#45;&gt;AppModule -->
<g id="edge51" class="edge">
<title>ScreenTrackingService&#45;&gt;AppModule</title>
<path fill="none" stroke="black" d="M8151,-122.2C8151,-146.36 8151,-186 8151,-186 8151,-186 4241.8,-186 4241.8,-186"/>
<polygon fill="black" stroke="black" points="4241.8,-182.5 4231.8,-186 4241.8,-189.5 4241.8,-182.5"/>
</g>
<!-- UserTrackingService -->
<g id="node53" class="node">
<title>UserTrackingService</title>
<ellipse fill="#fdb462" stroke="black" cx="7939" cy="-104" rx="93.15" ry="18"/>
<text text-anchor="middle" x="7939" y="-99.8" font-family="Times,serif" font-size="14.00">UserTrackingService</text>
</g>
<!-- UserTrackingService&#45;&gt;AppModule -->
<g id="edge52" class="edge">
<title>UserTrackingService&#45;&gt;AppModule</title>
<path fill="none" stroke="black" d="M7939,-122.38C7939,-146.28 7939,-185 7939,-185 7939,-185 4241.78,-185 4241.78,-185"/>
<polygon fill="black" stroke="black" points="4241.78,-181.5 4231.78,-185 4241.78,-188.5 4241.78,-181.5"/>
</g>
</g>
</svg>
