<?xml version="1.0" encoding="UTF-8" standalone="no"?>
<!DOCTYPE svg PUBLIC "-//W3C//DTD SVG 1.1//EN"
 "http://www.w3.org/Graphics/SVG/1.1/DTD/svg11.dtd">
<!-- Generated by graphviz version 2.47.0 (20210316.0004)
 -->
<!-- Title: dependencies Pages: 1 -->
<svg width="3756pt" height="284pt"
 viewBox="0.00 0.00 3756.00 284.00" xmlns="http://www.w3.org/2000/svg" xmlns:xlink="http://www.w3.org/1999/xlink">
<g id="graph0" class="graph" transform="scale(1 1) rotate(0) translate(4 280)">
<title>dependencies</title>
<polygon fill="white" stroke="transparent" points="-4,4 -4,-280 3752,-280 3752,4 -4,4"/>
<text text-anchor="start" x="1853.01" y="-42.4" font-family="sans-serif" font-weight="bold" font-size="14.00">Legend</text>
<polygon fill="#ffffb3" stroke="transparent" points="1640,-10 1640,-30 1660,-30 1660,-10 1640,-10"/>
<text text-anchor="start" x="1663.63" y="-15.4" font-family="sans-serif" font-size="14.00"> &#160;Declarations</text>
<polygon fill="#8dd3c7" stroke="transparent" points="1753,-10 1753,-30 1773,-30 1773,-10 1753,-10"/>
<text text-anchor="start" x="1776.73" y="-15.4" font-family="sans-serif" font-size="14.00"> &#160;Module</text>
<polygon fill="#80b1d3" stroke="transparent" points="1839,-10 1839,-30 1859,-30 1859,-10 1839,-10"/>
<text text-anchor="start" x="1862.78" y="-15.4" font-family="sans-serif" font-size="14.00"> &#160;Bootstrap</text>
<polygon fill="#fdb462" stroke="transparent" points="1936,-10 1936,-30 1956,-30 1956,-10 1936,-10"/>
<text text-anchor="start" x="1959.67" y="-15.4" font-family="sans-serif" font-size="14.00"> &#160;Providers</text>
<polygon fill="#fb8072" stroke="transparent" points="2032,-10 2032,-30 2052,-30 2052,-10 2032,-10"/>
<text text-anchor="start" x="2055.73" y="-15.4" font-family="sans-serif" font-size="14.00"> &#160;Exports</text>
<g id="clust1" class="cluster">
<title>cluster_MaterialModule</title>
<polygon fill="none" stroke="black" stroke-dasharray="1,5" points="8,-70 8,-268 3740,-268 3740,-70 8,-70"/>
</g>
<g id="clust3" class="cluster">
<title>cluster_MaterialModule_imports</title>
<polygon fill="none" stroke="black" points="1194,-78 1194,-130 3732,-130 3732,-78 1194,-78"/>
</g>
<g id="clust4" class="cluster">
<title>cluster_MaterialModule_exports</title>
<polygon fill="none" stroke="black" points="976,-208 976,-260 3573,-260 3573,-208 976,-208"/>
</g>
<g id="clust6" class="cluster">
<title>cluster_MaterialModule_providers</title>
<polygon fill="none" stroke="black" points="16,-78 16,-130 1186,-130 1186,-78 16,-78"/>
</g>
<!-- MatAutocompleteModule -->
<g id="node1" class="node">
<title>MatAutocompleteModule</title>
<polygon fill="#8dd3c7" stroke="black" points="3723.91,-122 3720.91,-126 3699.91,-126 3696.91,-122 3562.09,-122 3562.09,-86 3723.91,-86 3723.91,-122"/>
<text text-anchor="middle" x="3643" y="-99.8" font-family="Times,serif" font-size="14.00">MatAutocompleteModule</text>
</g>
<!-- MaterialModule -->
<g id="node19" class="node">
<title>MaterialModule</title>
<polygon fill="#8dd3c7" stroke="black" points="2289.47,-187 2286.47,-191 2265.47,-191 2262.47,-187 2182.53,-187 2182.53,-151 2289.47,-151 2289.47,-187"/>
<text text-anchor="middle" x="2236" y="-164.8" font-family="Times,serif" font-size="14.00">MaterialModule</text>
</g>
<!-- MatAutocompleteModule&#45;&gt;MaterialModule -->
<g id="edge1" class="edge">
<title>MatAutocompleteModule&#45;&gt;MaterialModule</title>
<path fill="none" stroke="black" d="M3644.58,-122.03C3644.58,-141.58 3644.58,-170 3644.58,-170 3644.58,-170 2299.5,-170 2299.5,-170"/>
<polygon fill="black" stroke="black" points="2299.5,-166.5 2289.5,-170 2299.5,-173.5 2299.5,-166.5"/>
</g>
<!-- MatButtonModule -->
<g id="node2" class="node">
<title>MatButtonModule</title>
<polygon fill="#8dd3c7" stroke="black" points="3544.22,-122 3541.22,-126 3520.22,-126 3517.22,-122 3423.78,-122 3423.78,-86 3544.22,-86 3544.22,-122"/>
<text text-anchor="middle" x="3484" y="-99.8" font-family="Times,serif" font-size="14.00">MatButtonModule</text>
</g>
<!-- MatButtonModule&#45;&gt;MaterialModule -->
<g id="edge2" class="edge">
<title>MatButtonModule&#45;&gt;MaterialModule</title>
<path fill="none" stroke="black" d="M3484,-122.11C3484,-141.34 3484,-169 3484,-169 3484,-169 2299.62,-169 2299.62,-169"/>
<polygon fill="black" stroke="black" points="2299.63,-165.5 2289.62,-169 2299.62,-172.5 2299.63,-165.5"/>
</g>
<!-- MatButtonToggleModule -->
<g id="node3" class="node">
<title>MatButtonToggleModule</title>
<polygon fill="#8dd3c7" stroke="black" points="3405.88,-122 3402.88,-126 3381.88,-126 3378.88,-122 3246.12,-122 3246.12,-86 3405.88,-86 3405.88,-122"/>
<text text-anchor="middle" x="3326" y="-99.8" font-family="Times,serif" font-size="14.00">MatButtonToggleModule</text>
</g>
<!-- MatButtonToggleModule&#45;&gt;MaterialModule -->
<g id="edge3" class="edge">
<title>MatButtonToggleModule&#45;&gt;MaterialModule</title>
<path fill="none" stroke="black" d="M3252.6,-122.22C3252.6,-140.83 3252.6,-167 3252.6,-167 3252.6,-167 2299.58,-167 2299.58,-167"/>
<polygon fill="black" stroke="black" points="2299.58,-163.5 2289.58,-167 2299.58,-170.5 2299.58,-163.5"/>
</g>
<!-- MatCardModule -->
<g id="node4" class="node">
<title>MatCardModule</title>
<polygon fill="#8dd3c7" stroke="black" points="3227.81,-122 3224.81,-126 3203.81,-126 3200.81,-122 3118.19,-122 3118.19,-86 3227.81,-86 3227.81,-122"/>
<text text-anchor="middle" x="3173" y="-99.8" font-family="Times,serif" font-size="14.00">MatCardModule</text>
</g>
<!-- MatCardModule&#45;&gt;MaterialModule -->
<g id="edge4" class="edge">
<title>MatCardModule&#45;&gt;MaterialModule</title>
<path fill="none" stroke="black" d="M3173,-122.3C3173,-140.27 3173,-165 3173,-165 3173,-165 2299.74,-165 2299.74,-165"/>
<polygon fill="black" stroke="black" points="2299.74,-161.5 2289.74,-165 2299.74,-168.5 2299.74,-161.5"/>
</g>
<!-- MatChipsModule -->
<g id="node5" class="node">
<title>MatChipsModule</title>
<polygon fill="#8dd3c7" stroke="black" points="3100.27,-122 3097.27,-126 3076.27,-126 3073.27,-122 2985.73,-122 2985.73,-86 3100.27,-86 3100.27,-122"/>
<text text-anchor="middle" x="3043" y="-99.8" font-family="Times,serif" font-size="14.00">MatChipsModule</text>
</g>
<!-- MatChipsModule&#45;&gt;MaterialModule -->
<g id="edge5" class="edge">
<title>MatChipsModule&#45;&gt;MaterialModule</title>
<path fill="none" stroke="black" d="M3022.51,-122.02C3022.51,-139.37 3022.51,-163 3022.51,-163 3022.51,-163 2299.75,-163 2299.75,-163"/>
<polygon fill="black" stroke="black" points="2299.75,-159.5 2289.75,-163 2299.75,-166.5 2299.75,-159.5"/>
</g>
<!-- MatDialogModule -->
<g id="node6" class="node">
<title>MatDialogModule</title>
<polygon fill="#8dd3c7" stroke="black" points="2968.2,-122 2965.2,-126 2944.2,-126 2941.2,-122 2847.8,-122 2847.8,-86 2968.2,-86 2968.2,-122"/>
<text text-anchor="middle" x="2908" y="-99.8" font-family="Times,serif" font-size="14.00">MatDialogModule</text>
</g>
<!-- MatDialogModule&#45;&gt;MaterialModule -->
<g id="edge6" class="edge">
<title>MatDialogModule&#45;&gt;MaterialModule</title>
<path fill="none" stroke="black" d="M2888.02,-122.04C2888.02,-138.73 2888.02,-161 2888.02,-161 2888.02,-161 2299.63,-161 2299.63,-161"/>
<polygon fill="black" stroke="black" points="2299.63,-157.5 2289.63,-161 2299.63,-164.5 2299.63,-157.5"/>
</g>
<!-- MatFormFieldModule -->
<g id="node7" class="node">
<title>MatFormFieldModule</title>
<polygon fill="#8dd3c7" stroke="black" points="2829.71,-122 2826.71,-126 2805.71,-126 2802.71,-122 2688.29,-122 2688.29,-86 2829.71,-86 2829.71,-122"/>
<text text-anchor="middle" x="2759" y="-99.8" font-family="Times,serif" font-size="14.00">MatFormFieldModule</text>
</g>
<!-- MatFormFieldModule&#45;&gt;MaterialModule -->
<g id="edge7" class="edge">
<title>MatFormFieldModule&#45;&gt;MaterialModule</title>
<path fill="none" stroke="black" d="M2740.12,-122.01C2740.12,-138.05 2740.12,-159 2740.12,-159 2740.12,-159 2299.47,-159 2299.47,-159"/>
<polygon fill="black" stroke="black" points="2299.47,-155.5 2289.47,-159 2299.47,-162.5 2299.47,-155.5"/>
</g>
<!-- MatIconModule -->
<g id="node8" class="node">
<title>MatIconModule</title>
<polygon fill="#8dd3c7" stroke="black" points="2670.47,-122 2667.47,-126 2646.47,-126 2643.47,-122 2563.53,-122 2563.53,-86 2670.47,-86 2670.47,-122"/>
<text text-anchor="middle" x="2617" y="-99.8" font-family="Times,serif" font-size="14.00">MatIconModule</text>
</g>
<!-- MatIconModule&#45;&gt;MaterialModule -->
<g id="edge8" class="edge">
<title>MatIconModule&#45;&gt;MaterialModule</title>
<path fill="none" stroke="black" d="M2606.93,-122.24C2606.93,-137.57 2606.93,-157 2606.93,-157 2606.93,-157 2299.54,-157 2299.54,-157"/>
<polygon fill="black" stroke="black" points="2299.54,-153.5 2289.54,-157 2299.54,-160.5 2299.54,-153.5"/>
</g>
<!-- MatInputModule -->
<g id="node9" class="node">
<title>MatInputModule</title>
<polygon fill="#8dd3c7" stroke="black" points="2545.65,-122 2542.65,-126 2521.65,-126 2518.65,-122 2434.35,-122 2434.35,-86 2545.65,-86 2545.65,-122"/>
<text text-anchor="middle" x="2490" y="-99.8" font-family="Times,serif" font-size="14.00">MatInputModule</text>
</g>
<!-- MatInputModule&#45;&gt;MaterialModule -->
<g id="edge9" class="edge">
<title>MatInputModule&#45;&gt;MaterialModule</title>
<path fill="none" stroke="black" d="M2460.71,-122.12C2460.71,-136.78 2460.71,-155 2460.71,-155 2460.71,-155 2299.54,-155 2299.54,-155"/>
<polygon fill="black" stroke="black" points="2299.54,-151.5 2289.54,-155 2299.54,-158.5 2299.54,-151.5"/>
</g>
<!-- MatListModule -->
<g id="node10" class="node">
<title>MatListModule</title>
<polygon fill="#8dd3c7" stroke="black" points="2415.88,-122 2412.88,-126 2391.88,-126 2388.88,-122 2312.12,-122 2312.12,-86 2415.88,-86 2415.88,-122"/>
<text text-anchor="middle" x="2364" y="-99.8" font-family="Times,serif" font-size="14.00">MatListModule</text>
</g>
<!-- MatListModule&#45;&gt;MaterialModule -->
<g id="edge10" class="edge">
<title>MatListModule&#45;&gt;MaterialModule</title>
<path fill="none" stroke="black" d="M2335.32,-122.25C2335.32,-136.18 2335.32,-153 2335.32,-153 2335.32,-153 2299.73,-153 2299.73,-153"/>
<polygon fill="black" stroke="black" points="2299.73,-149.5 2289.73,-153 2299.73,-156.5 2299.73,-149.5"/>
</g>
<!-- MatRadioModule -->
<g id="node11" class="node">
<title>MatRadioModule</title>
<polygon fill="#8dd3c7" stroke="black" points="2293.54,-122 2290.54,-126 2269.54,-126 2266.54,-122 2178.46,-122 2178.46,-86 2293.54,-86 2293.54,-122"/>
<text text-anchor="middle" x="2236" y="-99.8" font-family="Times,serif" font-size="14.00">MatRadioModule</text>
</g>
<!-- MatRadioModule&#45;&gt;MaterialModule -->
<g id="edge11" class="edge">
<title>MatRadioModule&#45;&gt;MaterialModule</title>
<path fill="none" stroke="black" d="M2236,-122.11C2236,-122.11 2236,-140.99 2236,-140.99"/>
<polygon fill="black" stroke="black" points="2232.5,-140.99 2236,-150.99 2239.5,-140.99 2232.5,-140.99"/>
</g>
<!-- MatSelectModule -->
<g id="node12" class="node">
<title>MatSelectModule</title>
<polygon fill="#8dd3c7" stroke="black" points="2160.31,-122 2157.31,-126 2136.31,-126 2133.31,-122 2043.69,-122 2043.69,-86 2160.31,-86 2160.31,-122"/>
<text text-anchor="middle" x="2102" y="-99.8" font-family="Times,serif" font-size="14.00">MatSelectModule</text>
</g>
<!-- MatSelectModule&#45;&gt;MaterialModule -->
<g id="edge12" class="edge">
<title>MatSelectModule&#45;&gt;MaterialModule</title>
<path fill="none" stroke="black" d="M2139.23,-122.25C2139.23,-136.18 2139.23,-153 2139.23,-153 2139.23,-153 2172.52,-153 2172.52,-153"/>
<polygon fill="black" stroke="black" points="2172.52,-156.5 2182.52,-153 2172.52,-149.5 2172.52,-156.5"/>
</g>
<!-- MatSidenavModule -->
<g id="node13" class="node">
<title>MatSidenavModule</title>
<polygon fill="#8dd3c7" stroke="black" points="2025.7,-122 2022.7,-126 2001.7,-126 1998.7,-122 1898.3,-122 1898.3,-86 2025.7,-86 2025.7,-122"/>
<text text-anchor="middle" x="1962" y="-99.8" font-family="Times,serif" font-size="14.00">MatSidenavModule</text>
</g>
<!-- MatSidenavModule&#45;&gt;MaterialModule -->
<g id="edge13" class="edge">
<title>MatSidenavModule&#45;&gt;MaterialModule</title>
<path fill="none" stroke="black" d="M2003.54,-122.12C2003.54,-136.78 2003.54,-155 2003.54,-155 2003.54,-155 2172.38,-155 2172.38,-155"/>
<polygon fill="black" stroke="black" points="2172.38,-158.5 2182.38,-155 2172.38,-151.5 2172.38,-158.5"/>
</g>
<!-- MatSnackBarModule -->
<g id="node14" class="node">
<title>MatSnackBarModule</title>
<polygon fill="#8dd3c7" stroke="black" points="1880.02,-122 1877.02,-126 1856.02,-126 1853.02,-122 1743.98,-122 1743.98,-86 1880.02,-86 1880.02,-122"/>
<text text-anchor="middle" x="1812" y="-99.8" font-family="Times,serif" font-size="14.00">MatSnackBarModule</text>
</g>
<!-- MatSnackBarModule&#45;&gt;MaterialModule -->
<g id="edge14" class="edge">
<title>MatSnackBarModule&#45;&gt;MaterialModule</title>
<path fill="none" stroke="black" d="M1862.18,-122.24C1862.18,-137.57 1862.18,-157 1862.18,-157 1862.18,-157 2172.44,-157 2172.44,-157"/>
<polygon fill="black" stroke="black" points="2172.44,-160.5 2182.44,-157 2172.44,-153.5 2172.44,-160.5"/>
</g>
<!-- MatSortModule -->
<g id="node15" class="node">
<title>MatSortModule</title>
<polygon fill="#8dd3c7" stroke="black" points="1725.93,-122 1722.93,-126 1701.93,-126 1698.93,-122 1620.07,-122 1620.07,-86 1725.93,-86 1725.93,-122"/>
<text text-anchor="middle" x="1673" y="-99.8" font-family="Times,serif" font-size="14.00">MatSortModule</text>
</g>
<!-- MatSortModule&#45;&gt;MaterialModule -->
<g id="edge15" class="edge">
<title>MatSortModule&#45;&gt;MaterialModule</title>
<path fill="none" stroke="black" d="M1710.68,-122.01C1710.68,-138.05 1710.68,-159 1710.68,-159 1710.68,-159 2172.25,-159 2172.25,-159"/>
<polygon fill="black" stroke="black" points="2172.25,-162.5 2182.25,-159 2172.25,-155.5 2172.25,-162.5"/>
</g>
<!-- MatTableModule -->
<g id="node16" class="node">
<title>MatTableModule</title>
<polygon fill="#8dd3c7" stroke="black" points="1601.97,-122 1598.97,-126 1577.97,-126 1574.97,-122 1488.03,-122 1488.03,-86 1601.97,-86 1601.97,-122"/>
<text text-anchor="middle" x="1545" y="-99.8" font-family="Times,serif" font-size="14.00">MatTableModule</text>
</g>
<!-- MatTableModule&#45;&gt;MaterialModule -->
<g id="edge16" class="edge">
<title>MatTableModule&#45;&gt;MaterialModule</title>
<path fill="none" stroke="black" d="M1569.99,-122.04C1569.99,-138.73 1569.99,-161 1569.99,-161 1569.99,-161 2172.34,-161 2172.34,-161"/>
<polygon fill="black" stroke="black" points="2172.34,-164.5 2182.34,-161 2172.34,-157.5 2172.34,-164.5"/>
</g>
<!-- MatToolbarModule -->
<g id="node17" class="node">
<title>MatToolbarModule</title>
<polygon fill="#8dd3c7" stroke="black" points="1470.42,-122 1467.42,-126 1446.42,-126 1443.42,-122 1343.58,-122 1343.58,-86 1470.42,-86 1470.42,-122"/>
<text text-anchor="middle" x="1407" y="-99.8" font-family="Times,serif" font-size="14.00">MatToolbarModule</text>
</g>
<!-- MatToolbarModule&#45;&gt;MaterialModule -->
<g id="edge17" class="edge">
<title>MatToolbarModule&#45;&gt;MaterialModule</title>
<path fill="none" stroke="black" d="M1440.87,-122.02C1440.87,-139.37 1440.87,-163 1440.87,-163 1440.87,-163 2172.28,-163 2172.28,-163"/>
<polygon fill="black" stroke="black" points="2172.28,-166.5 2182.28,-163 2172.28,-159.5 2172.28,-166.5"/>
</g>
<!-- MatTooltipModule -->
<g id="node18" class="node">
<title>MatTooltipModule</title>
<polygon fill="#8dd3c7" stroke="black" points="1325.82,-122 1322.82,-126 1301.82,-126 1298.82,-122 1202.18,-122 1202.18,-86 1325.82,-86 1325.82,-122"/>
<text text-anchor="middle" x="1264" y="-99.8" font-family="Times,serif" font-size="14.00">MatTooltipModule</text>
</g>
<!-- MatTooltipModule&#45;&gt;MaterialModule -->
<g id="edge18" class="edge">
<title>MatTooltipModule&#45;&gt;MaterialModule</title>
<path fill="none" stroke="black" d="M1300.96,-122.3C1300.96,-140.27 1300.96,-165 1300.96,-165 1300.96,-165 2172.37,-165 2172.37,-165"/>
<polygon fill="black" stroke="black" points="2172.37,-168.5 2182.37,-165 2172.37,-161.5 2172.37,-168.5"/>
</g>
<!-- MatAutocompleteModule  -->
<g id="node20" class="node">
<title>MatAutocompleteModule </title>
<polygon fill="#fb8072" stroke="black" points="3565.41,-252 3400.59,-252 3400.59,-216 3565.41,-216 3565.41,-252"/>
<text text-anchor="middle" x="3483" y="-229.8" font-family="Times,serif" font-size="14.00">MatAutocompleteModule </text>
</g>
<!-- MaterialModule&#45;&gt;MatAutocompleteModule  -->
<g id="edge19" class="edge">
<title>MaterialModule&#45;&gt;MatAutocompleteModule </title>
<path fill="none" stroke="black" stroke-dasharray="5,2" d="M2289.72,-172C2520.35,-172 3414.91,-172 3414.91,-172 3414.91,-172 3414.91,-205.73 3414.91,-205.73"/>
<polygon fill="black" stroke="black" points="3411.41,-205.73 3414.91,-215.73 3418.41,-205.73 3411.41,-205.73"/>
</g>
<!-- MatButtonModule  -->
<g id="node21" class="node">
<title>MatButtonModule </title>
<polygon fill="#fb8072" stroke="black" points="3382.72,-252 3259.28,-252 3259.28,-216 3382.72,-216 3382.72,-252"/>
<text text-anchor="middle" x="3321" y="-229.8" font-family="Times,serif" font-size="14.00">MatButtonModule </text>
</g>
<!-- MaterialModule&#45;&gt;MatButtonModule  -->
<g id="edge20" class="edge">
<title>MaterialModule&#45;&gt;MatButtonModule </title>
<path fill="none" stroke="black" stroke-dasharray="5,2" d="M2289.81,-174C2508.74,-174 3321,-174 3321,-174 3321,-174 3321,-206 3321,-206"/>
<polygon fill="black" stroke="black" points="3317.5,-206 3321,-216 3324.5,-206 3317.5,-206"/>
</g>
<!-- MatButtonToggleModule  -->
<g id="node22" class="node">
<title>MatButtonToggleModule </title>
<polygon fill="#fb8072" stroke="black" points="3240.88,-252 3077.12,-252 3077.12,-216 3240.88,-216 3240.88,-252"/>
<text text-anchor="middle" x="3159" y="-229.8" font-family="Times,serif" font-size="14.00">MatButtonToggleModule </text>
</g>
<!-- MaterialModule&#45;&gt;MatButtonToggleModule  -->
<g id="edge21" class="edge">
<title>MaterialModule&#45;&gt;MatButtonToggleModule </title>
<path fill="none" stroke="black" stroke-dasharray="5,2" d="M2289.67,-176C2476.76,-176 3088.85,-176 3088.85,-176 3088.85,-176 3088.85,-205.97 3088.85,-205.97"/>
<polygon fill="black" stroke="black" points="3085.35,-205.97 3088.85,-215.97 3092.35,-205.97 3085.35,-205.97"/>
</g>
<!-- MatCardModule  -->
<g id="node23" class="node">
<title>MatCardModule </title>
<polygon fill="#fb8072" stroke="black" points="3059.31,-252 2946.69,-252 2946.69,-216 3059.31,-216 3059.31,-252"/>
<text text-anchor="middle" x="3003" y="-229.8" font-family="Times,serif" font-size="14.00">MatCardModule </text>
</g>
<!-- MaterialModule&#45;&gt;MatCardModule  -->
<g id="edge22" class="edge">
<title>MaterialModule&#45;&gt;MatCardModule </title>
<path fill="none" stroke="black" stroke-dasharray="5,2" d="M2289.63,-178C2456.8,-178 2957.35,-178 2957.35,-178 2957.35,-178 2957.35,-205.97 2957.35,-205.97"/>
<polygon fill="black" stroke="black" points="2953.85,-205.97 2957.35,-215.97 2960.85,-205.97 2953.85,-205.97"/>
</g>
<!-- MatChipsModule  -->
<g id="node24" class="node">
<title>MatChipsModule </title>
<polygon fill="#fb8072" stroke="black" points="2928.27,-252 2809.73,-252 2809.73,-216 2928.27,-216 2928.27,-252"/>
<text text-anchor="middle" x="2869" y="-229.8" font-family="Times,serif" font-size="14.00">MatChipsModule </text>
</g>
<!-- MaterialModule&#45;&gt;MatChipsModule  -->
<g id="edge23" class="edge">
<title>MaterialModule&#45;&gt;MatChipsModule </title>
<path fill="none" stroke="black" stroke-dasharray="5,2" d="M2289.61,-180C2433.92,-180 2819.74,-180 2819.74,-180 2819.74,-180 2819.74,-205.72 2819.74,-205.72"/>
<polygon fill="black" stroke="black" points="2816.24,-205.72 2819.74,-215.72 2823.24,-205.72 2816.24,-205.72"/>
</g>
<!-- MatDialogModule  -->
<g id="node25" class="node">
<title>MatDialogModule </title>
<polygon fill="#fb8072" stroke="black" points="2791.7,-252 2668.3,-252 2668.3,-216 2791.7,-216 2791.7,-252"/>
<text text-anchor="middle" x="2730" y="-229.8" font-family="Times,serif" font-size="14.00">MatDialogModule </text>
</g>
<!-- MaterialModule&#45;&gt;MatDialogModule  -->
<g id="edge24" class="edge">
<title>MaterialModule&#45;&gt;MatDialogModule </title>
<path fill="none" stroke="black" stroke-dasharray="5,2" d="M2289.49,-182C2407.43,-182 2679.44,-182 2679.44,-182 2679.44,-182 2679.44,-205.81 2679.44,-205.81"/>
<polygon fill="black" stroke="black" points="2675.94,-205.81 2679.44,-215.81 2682.94,-205.81 2675.94,-205.81"/>
</g>
<!-- MatFormFieldModule  -->
<g id="node26" class="node">
<title>MatFormFieldModule </title>
<polygon fill="#fb8072" stroke="black" points="2650.21,-252 2505.79,-252 2505.79,-216 2650.21,-216 2650.21,-252"/>
<text text-anchor="middle" x="2578" y="-229.8" font-family="Times,serif" font-size="14.00">MatFormFieldModule </text>
</g>
<!-- MaterialModule&#45;&gt;MatFormFieldModule  -->
<g id="edge25" class="edge">
<title>MaterialModule&#45;&gt;MatFormFieldModule </title>
<path fill="none" stroke="black" stroke-dasharray="5,2" d="M2289.48,-184C2373.2,-184 2525.73,-184 2525.73,-184 2525.73,-184 2525.73,-205.95 2525.73,-205.95"/>
<polygon fill="black" stroke="black" points="2522.23,-205.95 2525.73,-215.95 2529.23,-205.95 2522.23,-205.95"/>
</g>
<!-- MatIconModule  -->
<g id="node27" class="node">
<title>MatIconModule </title>
<polygon fill="#fb8072" stroke="black" points="2487.48,-252 2376.52,-252 2376.52,-216 2487.48,-216 2487.48,-252"/>
<text text-anchor="middle" x="2432" y="-229.8" font-family="Times,serif" font-size="14.00">MatIconModule </text>
</g>
<!-- MaterialModule&#45;&gt;MatIconModule  -->
<g id="edge26" class="edge">
<title>MaterialModule&#45;&gt;MatIconModule </title>
<path fill="none" stroke="black" stroke-dasharray="5,2" d="M2289.84,-186C2336.42,-186 2396.35,-186 2396.35,-186 2396.35,-186 2396.35,-205.85 2396.35,-205.85"/>
<polygon fill="black" stroke="black" points="2392.85,-205.85 2396.35,-215.85 2399.85,-205.85 2392.85,-205.85"/>
</g>
<!-- MatInputModule  -->
<g id="node28" class="node">
<title>MatInputModule </title>
<polygon fill="#fb8072" stroke="black" points="2358.65,-252 2243.35,-252 2243.35,-216 2358.65,-216 2358.65,-252"/>
<text text-anchor="middle" x="2301" y="-229.8" font-family="Times,serif" font-size="14.00">MatInputModule </text>
</g>
<!-- MaterialModule&#45;&gt;MatInputModule  -->
<g id="edge27" class="edge">
<title>MaterialModule&#45;&gt;MatInputModule </title>
<path fill="none" stroke="black" stroke-dasharray="5,2" d="M2266.45,-187.11C2266.45,-187.11 2266.45,-205.99 2266.45,-205.99"/>
<polygon fill="black" stroke="black" points="2262.96,-205.99 2266.45,-215.99 2269.96,-205.99 2262.96,-205.99"/>
</g>
<!-- MatListModule  -->
<g id="node29" class="node">
<title>MatListModule </title>
<polygon fill="#fb8072" stroke="black" points="2225.88,-252 2118.12,-252 2118.12,-216 2225.88,-216 2225.88,-252"/>
<text text-anchor="middle" x="2172" y="-229.8" font-family="Times,serif" font-size="14.00">MatListModule </text>
</g>
<!-- MaterialModule&#45;&gt;MatListModule  -->
<g id="edge28" class="edge">
<title>MaterialModule&#45;&gt;MatListModule </title>
<path fill="none" stroke="black" stroke-dasharray="5,2" d="M2204.1,-187.11C2204.1,-187.11 2204.1,-205.99 2204.1,-205.99"/>
<polygon fill="black" stroke="black" points="2200.6,-205.99 2204.1,-215.99 2207.6,-205.99 2200.6,-205.99"/>
</g>
<!-- MatRadioModule  -->
<g id="node30" class="node">
<title>MatRadioModule </title>
<polygon fill="#fb8072" stroke="black" points="2100.54,-252 1981.46,-252 1981.46,-216 2100.54,-216 2100.54,-252"/>
<text text-anchor="middle" x="2041" y="-229.8" font-family="Times,serif" font-size="14.00">MatRadioModule </text>
</g>
<!-- MaterialModule&#45;&gt;MatRadioModule  -->
<g id="edge29" class="edge">
<title>MaterialModule&#45;&gt;MatRadioModule </title>
<path fill="none" stroke="black" stroke-dasharray="5,2" d="M2182.36,-186C2134.58,-186 2072.18,-186 2072.18,-186 2072.18,-186 2072.18,-205.85 2072.18,-205.85"/>
<polygon fill="black" stroke="black" points="2068.68,-205.85 2072.18,-215.85 2075.68,-205.85 2068.68,-205.85"/>
</g>
<!-- MatSelectModule  -->
<g id="node31" class="node">
<title>MatSelectModule </title>
<polygon fill="#fb8072" stroke="black" points="1963.81,-252 1844.19,-252 1844.19,-216 1963.81,-216 1963.81,-252"/>
<text text-anchor="middle" x="1904" y="-229.8" font-family="Times,serif" font-size="14.00">MatSelectModule </text>
</g>
<!-- MaterialModule&#45;&gt;MatSelectModule  -->
<g id="edge30" class="edge">
<title>MaterialModule&#45;&gt;MatSelectModule </title>
<path fill="none" stroke="black" stroke-dasharray="5,2" d="M2182.2,-184C2094.68,-184 1931.15,-184 1931.15,-184 1931.15,-184 1931.15,-205.95 1931.15,-205.95"/>
<polygon fill="black" stroke="black" points="1927.65,-205.95 1931.15,-215.95 1934.65,-205.95 1927.65,-205.95"/>
</g>
<!-- MatSidenavModule  -->
<g id="node32" class="node">
<title>MatSidenavModule </title>
<polygon fill="#fb8072" stroke="black" points="1826.2,-252 1695.8,-252 1695.8,-216 1826.2,-216 1826.2,-252"/>
<text text-anchor="middle" x="1761" y="-229.8" font-family="Times,serif" font-size="14.00">MatSidenavModule </text>
</g>
<!-- MaterialModule&#45;&gt;MatSidenavModule  -->
<g id="edge31" class="edge">
<title>MaterialModule&#45;&gt;MatSidenavModule </title>
<path fill="none" stroke="black" stroke-dasharray="5,2" d="M2182.5,-182C2063.05,-182 1785.04,-182 1785.04,-182 1785.04,-182 1785.04,-205.81 1785.04,-205.81"/>
<polygon fill="black" stroke="black" points="1781.54,-205.81 1785.04,-215.81 1788.54,-205.81 1781.54,-205.81"/>
</g>
<!-- MatSnackBarModule  -->
<g id="node33" class="node">
<title>MatSnackBarModule </title>
<polygon fill="#fb8072" stroke="black" points="1678.02,-252 1537.98,-252 1537.98,-216 1678.02,-216 1678.02,-252"/>
<text text-anchor="middle" x="1608" y="-229.8" font-family="Times,serif" font-size="14.00">MatSnackBarModule </text>
</g>
<!-- MaterialModule&#45;&gt;MatSnackBarModule  -->
<g id="edge32" class="edge">
<title>MaterialModule&#45;&gt;MatSnackBarModule </title>
<path fill="none" stroke="black" stroke-dasharray="5,2" d="M2182.37,-180C2037.49,-180 1649.15,-180 1649.15,-180 1649.15,-180 1649.15,-205.72 1649.15,-205.72"/>
<polygon fill="black" stroke="black" points="1645.65,-205.72 1649.15,-215.72 1652.65,-205.72 1645.65,-205.72"/>
</g>
<!-- MatSortModule  -->
<g id="node34" class="node">
<title>MatSortModule </title>
<polygon fill="#fb8072" stroke="black" points="1520.43,-252 1411.57,-252 1411.57,-216 1520.43,-216 1520.43,-252"/>
<text text-anchor="middle" x="1466" y="-229.8" font-family="Times,serif" font-size="14.00">MatSortModule </text>
</g>
<!-- MaterialModule&#45;&gt;MatSortModule  -->
<g id="edge33" class="edge">
<title>MaterialModule&#45;&gt;MatSortModule </title>
<path fill="none" stroke="black" stroke-dasharray="5,2" d="M2182.49,-178C2013.8,-178 1504.24,-178 1504.24,-178 1504.24,-178 1504.24,-205.97 1504.24,-205.97"/>
<polygon fill="black" stroke="black" points="1500.74,-205.97 1504.24,-215.97 1507.74,-205.97 1500.74,-205.97"/>
</g>
<!-- MatTableModule  -->
<g id="node35" class="node">
<title>MatTableModule </title>
<polygon fill="#fb8072" stroke="black" points="1393.97,-252 1276.03,-252 1276.03,-216 1393.97,-216 1393.97,-252"/>
<text text-anchor="middle" x="1335" y="-229.8" font-family="Times,serif" font-size="14.00">MatTableModule </text>
</g>
<!-- MaterialModule&#45;&gt;MatTableModule  -->
<g id="edge34" class="edge">
<title>MaterialModule&#45;&gt;MatTableModule </title>
<path fill="none" stroke="black" stroke-dasharray="5,2" d="M2182.4,-176C1993.33,-176 1368.76,-176 1368.76,-176 1368.76,-176 1368.76,-205.97 1368.76,-205.97"/>
<polygon fill="black" stroke="black" points="1365.26,-205.97 1368.76,-215.97 1372.26,-205.97 1365.26,-205.97"/>
</g>
<!-- MatToolbarModule  -->
<g id="node36" class="node">
<title>MatToolbarModule </title>
<polygon fill="#fb8072" stroke="black" points="1257.92,-252 1128.08,-252 1128.08,-216 1257.92,-216 1257.92,-252"/>
<text text-anchor="middle" x="1193" y="-229.8" font-family="Times,serif" font-size="14.00">MatToolbarModule </text>
</g>
<!-- MaterialModule&#45;&gt;MatToolbarModule  -->
<g id="edge35" class="edge">
<title>MaterialModule&#45;&gt;MatToolbarModule </title>
<path fill="none" stroke="black" stroke-dasharray="5,2" d="M2182.28,-174C1973.84,-174 1230.15,-174 1230.15,-174 1230.15,-174 1230.15,-206 1230.15,-206"/>
<polygon fill="black" stroke="black" points="1226.65,-206 1230.15,-216 1233.65,-206 1226.65,-206"/>
</g>
<!-- MatTooltipModule  -->
<g id="node37" class="node">
<title>MatTooltipModule </title>
<polygon fill="#fb8072" stroke="black" points="1110.32,-252 983.68,-252 983.68,-216 1110.32,-216 1110.32,-252"/>
<text text-anchor="middle" x="1047" y="-229.8" font-family="Times,serif" font-size="14.00">MatTooltipModule </text>
</g>
<!-- MaterialModule&#45;&gt;MatTooltipModule  -->
<g id="edge36" class="edge">
<title>MaterialModule&#45;&gt;MatTooltipModule </title>
<path fill="none" stroke="black" stroke-dasharray="5,2" d="M2182.21,-172C1950.23,-172 1047,-172 1047,-172 1047,-172 1047,-205.73 1047,-205.73"/>
<polygon fill="black" stroke="black" points="1043.5,-205.73 1047,-215.73 1050.5,-205.73 1043.5,-205.73"/>
</g>
<!-- { provide: MatIconRegistry, useClass: CustomIconRegistry } -->
<g id="node38" class="node">
<title>{ provide: MatIconRegistry, useClass: CustomIconRegistry }</title>
<ellipse fill="#fdb462" stroke="black" cx="929" cy="-104" rx="248.63" ry="18"/>
<text text-anchor="middle" x="929" y="-99.8" font-family="Times,serif" font-size="14.00">{ provide: MatIconRegistry, useClass: CustomIconRegistry }</text>
</g>
<!-- { provide: MatIconRegistry, useClass: CustomIconRegistry }&#45;&gt;MaterialModule -->
<g id="edge37" class="edge">
<title>{ provide: MatIconRegistry, useClass: CustomIconRegistry }&#45;&gt;MaterialModule</title>
<path fill="none" stroke="black" d="M1152.93,-111.98C1152.93,-128.93 1152.93,-167 1152.93,-167 1152.93,-167 2172.29,-167 2172.29,-167"/>
<polygon fill="black" stroke="black" points="2172.29,-170.5 2182.29,-167 2172.29,-163.5 2172.29,-170.5"/>
</g>
<!-- { provide: MAT_DATE_LOCALE, useValue: &#39;en&#45;US&#39; } -->
<g id="node39" class="node">
<title>{ provide: MAT_DATE_LOCALE, useValue: &#39;en&#45;US&#39; }</title>
<ellipse fill="#fdb462" stroke="black" cx="431" cy="-104" rx="231.74" ry="18"/>
<text text-anchor="middle" x="431" y="-99.8" font-family="Times,serif" font-size="14.00">{ provide: MAT_DATE_LOCALE, useValue: &#39;en&#45;US&#39; }</text>
</g>
<!-- { provide: MAT_DATE_LOCALE, useValue: &#39;en&#45;US&#39; }&#45;&gt;MaterialModule -->
<g id="edge38" class="edge">
<title>{ provide: MAT_DATE_LOCALE, useValue: &#39;en&#45;US&#39; }&#45;&gt;MaterialModule</title>
<path fill="none" stroke="black" d="M431,-122.11C431,-141.34 431,-169 431,-169 431,-169 2172.47,-169 2172.47,-169"/>
<polygon fill="black" stroke="black" points="2172.47,-172.5 2182.47,-169 2172.47,-165.5 2172.47,-172.5"/>
</g>
<!-- svgIconProviders -->
<g id="node40" class="node">
<title>svgIconProviders</title>
<ellipse fill="#fdb462" stroke="black" cx="103" cy="-104" rx="78.73" ry="18"/>
<text text-anchor="middle" x="103" y="-99.8" font-family="Times,serif" font-size="14.00">svgIconProviders</text>
</g>
<!-- svgIconProviders&#45;&gt;MaterialModule -->
<g id="edge39" class="edge">
<title>svgIconProviders&#45;&gt;MaterialModule</title>
<path fill="none" stroke="black" d="M103,-122.03C103,-141.58 103,-170 103,-170 103,-170 2172.47,-170 2172.47,-170"/>
<polygon fill="black" stroke="black" points="2172.47,-173.5 2182.47,-170 2172.47,-166.5 2172.47,-173.5"/>
</g>
</g>
</svg>
